<?xml version="1.0" encoding="UTF-8"?>
<svg id="Layer_1" data-name="Layer 1" xmlns="http://www.w3.org/2000/svg" xmlns:xlink="http://www.w3.org/1999/xlink" viewBox="0 0 134.03 188.9">
  <defs>
    <style>
      .cls-1 {
        fill: #fff;
      }

      .cls-2 {
        stroke: url(#linear-gradient-9);
      }

      .cls-2, .cls-3, .cls-4, .cls-5, .cls-6, .cls-7, .cls-8, .cls-9, .cls-10, .cls-11, .cls-12, .cls-13, .cls-14, .cls-15 {
        stroke-miterlimit: 10;
      }

      .cls-2, .cls-3, .cls-4, .cls-5, .cls-6, .cls-8, .cls-9, .cls-10, .cls-11, .cls-12, .cls-13, .cls-14, .cls-15 {
        fill: none;
      }

      .cls-3 {
        stroke: url(#linear-gradient-4);
      }

      .cls-4 {
        stroke: url(#linear-gradient-6);
      }

      .cls-5 {
        stroke: url(#linear-gradient-13);
      }

      .cls-6 {
        stroke: url(#linear-gradient-16);
      }

      .cls-7 {
        fill: #fe786f;
        stroke: url(#linear-gradient-2);
      }

      .cls-8 {
        stroke: url(#linear-gradient-7);
      }

      .cls-16 {
        fill: #00baaa;
      }

      .cls-9 {
        stroke: url(#linear-gradient-12);
      }

      .cls-10 {
        stroke: url(#linear-gradient-5);
      }

      .cls-17 {
        mask: url(#mask-1);
      }

      .cls-18 {
        mask: url(#mask);
      }

      .cls-11 {
        stroke: url(#linear-gradient-14);
      }

      .cls-19 {
        fill: url(#linear-gradient-3);
      }

      .cls-20 {
        fill: url(#linear-gradient);
      }

      .cls-12 {
        stroke: url(#linear-gradient-11);
      }

      .cls-13 {
        stroke: url(#linear-gradient-8);
      }

      .cls-14 {
        stroke: url(#linear-gradient-10);
      }

      .cls-15 {
        stroke: url(#linear-gradient-15);
      }
    </style>
    <mask id="mask" x="0" y="8.8" width="126" height="108" maskUnits="userSpaceOnUse">
      <g id="path-1-outside-1_2_657" data-name="path-1-outside-1 2 657">
        <rect class="cls-1" y="8.8" width="126" height="108"/>
        <path d="m91.1,57.1h33.3c-.4-15.2-7.9-28.2-21.3-36.8-10.6-6.8-24.5-10.5-39.3-10.5s-29.4,3.8-40.4,10.6C9,29.3,1,42.8,1,58.4c0,14.7,7.1,27.5,21,37.8,8.9,6.7,19.9,11.8,30.4,16.5l.2-.2c.1,0,.1-.1.2-.2.1-.1.2-.2.3-.3.1,0,.1-.1.1-.1.1-.1.3-.3.4-.4l.1-.1c.1-.1.2-.3.4-.4.1,0,.1-.1.1-.2.1-.1.2-.2.3-.3s.1-.1.2-.2c.1-.1.2-.2.2-.3l.2-.2c.1-.1.1-.2.2-.3q.1-.1.2-.2c.1-.1.1-.2.2-.3q.1-.1.2-.2c.1-.1.1-.2.2-.3q.1-.1.2-.2c.1-.1.1-.2.2-.3s.1-.1.1-.2c.1-.1.2-.2.2-.3s.1-.1.1-.2c.1-.1.2-.2.3-.3,0,0,.1-.1.1-.2.1-.2.2-.3.3-.5.3-.3.5-.7.7-1,2-2.9,4-5.6,6.4-7,.1-.1.2-.1.3-.2.2-.1.4-.2.7-.3.7-.2,1.4-.4,2.1-.4,4.4,0,7.3,4.3,10.4,8.8,3.2,4.6,6.5,9.4,11.2,9.4h19c.1,0,.3,0,.4-.1h.3c.1,0,.3-.1.4-.1s.2,0,.3-.1c.1,0,.3-.1.4-.1s.2,0,.2-.1c.1,0,.3-.1.4-.1s.1,0,.2-.1.3-.1.5-.2h.1c.2-.1.4-.2.5-.3l.1-.1c.1-.1.2-.1.4-.2.1,0,.1-.1.2-.1.1-.1.2-.1.3-.2.1,0,.1-.1.2-.1.1-.1.2-.1.3-.2.1,0,.1-.1.2-.1.1-.1.2-.1.3-.2.1,0,.1-.1.2-.1.1-.1.2-.2.3-.2,0,0,.1-.1.2-.1.1-.1.2-.2.3-.3l.1-.1c-10.9-13.2-28.9-21.2-45-28.3-17.6-7.8-35.7-15.8-35.7-25.7s15.3-15.3,29.5-15.3c8.4,0,16.2,1.9,21.4,5.2,4.3,3,5.5,6.2,5.7,8.8Z"/>
      </g>
    </mask>
    <linearGradient id="linear-gradient" x1="62.71" y1="182.2" x2="62.71" y2="76.4" gradientTransform="translate(0 192) scale(1 -1)" gradientUnits="userSpaceOnUse">
      <stop offset="0" stop-color="#1e1e1e" stop-opacity=".83"/>
      <stop offset="1" stop-color="#fffdfd" stop-opacity=".6"/>
    </linearGradient>
    <linearGradient id="linear-gradient-2" x1="59.12" y1="46.7" x2="59.12" y2="4.1" gradientTransform="translate(0 192) scale(1 -1)" gradientUnits="userSpaceOnUse">
      <stop offset="0" stop-color="#1e1e1e" stop-opacity=".83"/>
      <stop offset="1" stop-color="#fffdfd" stop-opacity=".6"/>
    </linearGradient>
    <mask id="mask-1" x="8.6" y="0" width="126" height="108" maskUnits="userSpaceOnUse">
      <g id="path-25-outside-12_2_657" data-name="path-25-outside-12 2 657">
        <rect class="cls-1" x="8.6" width="126" height="108"/>
        <path d="m99.7,48.3h33.3c-.4-15.2-7.9-28.2-21.3-36.8-10.6-6.8-24.5-10.5-39.3-10.5s-29.4,3.8-40.4,10.6c-14.4,8.9-22.4,22.4-22.4,38,0,14.7,7.1,27.5,21,37.8,8.9,6.7,19.9,11.8,30.4,16.5q.1-.1.2-.2c.1,0,.1-.1.2-.2.1-.1.2-.2.3-.3.1,0,.1-.1.1-.1.1-.1.3-.3.4-.4t.1-.1c.1-.1.2-.3.4-.4.1,0,.1-.1.1-.2.1-.1.2-.2.3-.3q.1-.1.2-.2c.1-.1.2-.2.2-.3q.1-.1.2-.2c.1-.1.1-.2.2-.3l.2-.2c.1-.1.1-.2.2-.3l.2-.2c.1-.1.1-.2.2-.3q.1-.1.2-.2c.1-.1.1-.2.2-.3q.1-.1.1-.2c.1-.1.2-.2.2-.3s.1-.1.1-.2c.1-.1.2-.2.3-.3,0,0,.1-.1.1-.2.1-.2.2-.3.3-.5.3-.3.5-.7.7-1,2-2.9,4-5.6,6.4-7,.1-.1.2-.1.3-.2.2-.1.4-.2.7-.3.7-.2,1.4-.4,2.1-.4,4.4,0,7.3,4.3,10.4,8.8,3.2,4.6,6.5,9.4,11.2,9.4h19c.1,0,.3,0,.4-.1h.3c.1,0,.3-.1.4-.1s.2,0,.3-.1c.1,0,.3-.1.4-.1s.2,0,.2-.1c.1,0,.3-.1.4-.1s.1,0,.2-.1.3-.1.5-.2h.1c.2-.1.4-.2.5-.3l.1-.1c.1-.1.2-.1.4-.2.1,0,.1-.1.2-.1.1-.1.2-.1.3-.2.1,0,.1-.1.2-.1.1-.1.2-.1.3-.2.1,0,.1-.1.2-.1.1-.1.2-.1.3-.2.1,0,.1-.1.2-.1.1-.1.2-.2.3-.2,0,0,.1-.1.2-.1.1-.1.2-.2.3-.3l.1-.1c-10.9-13.2-28.9-21.2-45-28.3-17.6-7.8-35.7-15.8-35.7-25.7s15.3-15.3,29.5-15.3c8.4,0,16.2,1.9,21.4,5.2,4.3,3,5.5,6.2,5.7,8.8Z"/>
      </g>
    </mask>
    <linearGradient id="linear-gradient-3" x1="71.31" y1="191" x2="71.31" y2="85.2" gradientTransform="translate(0 192) scale(1 -1)" gradientUnits="userSpaceOnUse">
      <stop offset="0" stop-color="#1e1e1e" stop-opacity=".83"/>
      <stop offset="1" stop-color="#fffdfd" stop-opacity=".6"/>
    </linearGradient>
    <linearGradient id="linear-gradient-4" x1="67.72" y1="55.5" x2="67.72" y2="12.9" gradientTransform="translate(0 192) scale(1 -1)" gradientUnits="userSpaceOnUse">
      <stop offset="0" stop-color="#1e1e1e" stop-opacity=".83"/>
      <stop offset="1" stop-color="#fffdfd" stop-opacity=".6"/>
    </linearGradient>
    <linearGradient id="linear-gradient-5" x1="119.2" y1="88.4" x2="119.2" y2="79.5" gradientTransform="translate(0 192) scale(1 -1)" gradientUnits="userSpaceOnUse">
      <stop offset="0" stop-color="#1e1e1e" stop-opacity=".83"/>
      <stop offset="1" stop-color="#fffdfd" stop-opacity=".6"/>
    </linearGradient>
    <linearGradient id="linear-gradient-6" x1="56.6" y1="88.1" x2="56.6" y2="79.3" gradientTransform="translate(0 192) scale(1 -1)" gradientUnits="userSpaceOnUse">
      <stop offset="0" stop-color="#1e1e1e" stop-opacity=".83"/>
      <stop offset="1" stop-color="#fffdfd" stop-opacity=".6"/>
    </linearGradient>
    <linearGradient id="linear-gradient-7" x1="7.6" y1="47.5" x2="7.6" y2="38.7" gradientTransform="translate(0 192) scale(1 -1)" gradientUnits="userSpaceOnUse">
      <stop offset="0" stop-color="#1e1e1e" stop-opacity=".83"/>
      <stop offset="1" stop-color="#fffdfd" stop-opacity=".6"/>
    </linearGradient>
    <linearGradient id="linear-gradient-8" x1="119" y1="33.7" x2="119" y2="24.9" gradientTransform="translate(0 192) scale(1 -1)" gradientUnits="userSpaceOnUse">
      <stop offset="0" stop-color="#1e1e1e" stop-opacity=".83"/>
      <stop offset="1" stop-color="#fffdfd" stop-opacity=".6"/>
    </linearGradient>
    <linearGradient id="linear-gradient-9" x1="65.9" y1="12.7" x2="65.9" y2="3.8" gradientTransform="translate(0 192) scale(1 -1)" gradientUnits="userSpaceOnUse">
      <stop offset="0" stop-color="#1e1e1e" stop-opacity=".83"/>
      <stop offset="1" stop-color="#fffdfd" stop-opacity=".6"/>
    </linearGradient>
    <linearGradient id="linear-gradient-10" x1="79.9" y1="55.4" x2="79.9" y2="46.6" gradientTransform="translate(0 192) scale(1 -1)" gradientUnits="userSpaceOnUse">
      <stop offset="0" stop-color="#1e1e1e" stop-opacity=".83"/>
      <stop offset="1" stop-color="#fffdfd" stop-opacity=".6"/>
    </linearGradient>
    <linearGradient id="linear-gradient-11" x1="72.25" y1="52" x2="72.25" y2="43.1" gradientTransform="translate(0 192) scale(1 -1)" gradientUnits="userSpaceOnUse">
      <stop offset="0" stop-color="#1e1e1e" stop-opacity=".83"/>
      <stop offset="1" stop-color="#fffdfd" stop-opacity=".6"/>
    </linearGradient>
    <linearGradient id="linear-gradient-12" x1="95.4" y1="186.3" x2="95.4" y2="177.5" gradientTransform="translate(0 192) scale(1 -1)" gradientUnits="userSpaceOnUse">
      <stop offset="0" stop-color="#1e1e1e" stop-opacity=".83"/>
      <stop offset="1" stop-color="#fffdfd" stop-opacity=".6"/>
    </linearGradient>
    <linearGradient id="linear-gradient-13" x1="42" y1="134.9" x2="42" y2="126.1" gradientTransform="translate(0 192) scale(1 -1)" gradientUnits="userSpaceOnUse">
      <stop offset="0" stop-color="#1e1e1e" stop-opacity=".83"/>
      <stop offset="1" stop-color="#fffdfd" stop-opacity=".6"/>
    </linearGradient>
    <linearGradient id="linear-gradient-14" x1="11.7" y1="119.2" x2="11.7" y2="110.4" gradientTransform="translate(0 192) scale(1 -1)" gradientUnits="userSpaceOnUse">
      <stop offset="0" stop-color="#1e1e1e" stop-opacity=".83"/>
      <stop offset="1" stop-color="#fffdfd" stop-opacity=".6"/>
    </linearGradient>
    <linearGradient id="linear-gradient-15" x1="128.8" y1="143.7" x2="128.8" y2="134.9" gradientTransform="translate(0 192) scale(1 -1)" gradientUnits="userSpaceOnUse">
      <stop offset="0" stop-color="#1e1e1e" stop-opacity=".83"/>
      <stop offset="1" stop-color="#fffdfd" stop-opacity=".6"/>
    </linearGradient>
    <linearGradient id="linear-gradient-16" x1="95.4" y1="143.7" x2="95.4" y2="134.9" gradientTransform="translate(0 192) scale(1 -1)" gradientUnits="userSpaceOnUse">
      <stop offset="0" stop-color="#1e1e1e" stop-opacity=".83"/>
      <stop offset="1" stop-color="#fffdfd" stop-opacity=".6"/>
    </linearGradient>
  </defs>
  <path class="cls-16" d="m91.1,57.1h33.3c-.4-15.2-7.9-28.2-21.3-36.8-10.6-6.8-24.5-10.5-39.3-10.5s-29.4,3.8-40.4,10.6C9,29.3,1,42.8,1,58.4c0,14.7,7.1,27.5,21,37.8,8.9,6.7,19.9,11.8,30.4,16.5l.2-.2c.1,0,.1-.1.2-.2.1-.1.2-.2.3-.3.1,0,.1-.1.1-.1.1-.1.3-.3.4-.4l.1-.1c.1-.1.2-.3.4-.4.1,0,.1-.1.1-.2.1-.1.2-.2.3-.3s.1-.1.2-.2c.1-.1.2-.2.2-.3l.2-.2c.1-.1.1-.2.2-.3q.1-.1.2-.2c.1-.1.1-.2.2-.3q.1-.1.2-.2c.1-.1.1-.2.2-.3q.1-.1.2-.2c.1-.1.1-.2.2-.3s.1-.1.1-.2c.1-.1.2-.2.2-.3s.1-.1.1-.2c.1-.1.2-.2.3-.3,0,0,.1-.1.1-.2.1-.2.2-.3.3-.5.3-.3.5-.7.7-1,2-2.9,4-5.6,6.4-7,.1-.1.2-.1.3-.2.2-.1.4-.2.7-.3.7-.2,1.4-.4,2.1-.4,4.4,0,7.3,4.3,10.4,8.8,3.2,4.6,6.5,9.4,11.2,9.4h19c.1,0,.3,0,.4-.1h.3c.1,0,.3-.1.4-.1s.2,0,.3-.1c.1,0,.3-.1.4-.1s.2,0,.2-.1c.1,0,.3-.1.4-.1s.1,0,.2-.1.3-.1.5-.2h.1c.2-.1.4-.2.5-.3l.1-.1c.1-.1.2-.1.4-.2.1,0,.1-.1.2-.1.1-.1.2-.1.3-.2.1,0,.1-.1.2-.1.1-.1.2-.1.3-.2.1,0,.1-.1.2-.1.1-.1.2-.1.3-.2.1,0,.1-.1.2-.1.1-.1.2-.2.3-.2,0,0,.1-.1.2-.1.1-.1.2-.2.3-.3l.1-.1c-10.9-13.2-28.9-21.2-45-28.3-17.6-7.8-35.7-15.8-35.7-25.7s15.3-15.3,29.5-15.3c8.4,0,16.2,1.9,21.4,5.2,4.3,3,5.5,6.2,5.7,8.8Z"/>
  <g class="cls-18">
    <path class="cls-20" d="m91.1,57.1l-1,.08.07.92h.93v-1Zm33.3,0v1h1.03l-.03-1.03-1,.03Zm-21.3-36.8l.54-.84h0s-.54.84-.54.84Zm-79.7.1l.53.85h0s-.53-.85-.53-.85Zm-1.4,75.8l.6-.8h0s-.6.8-.6.8Zm30.4,16.5l-.41.91.63.28.49-.49-.71-.71Zm.2-.2v-1h-.41l-.29.29.71.71Zm.5-.5v-1h-.41l-.29.29.71.71Zm.1-.1l-.71-.71-.29.29v.41h1Zm.4-.4l.97-.24-.43-1.71-1.25,1.25.71.71Zm.5-.5v-1h-.24l-.21.11.45.89Zm.1-.2l-.71-.71-.29.29v.41h1Zm.7-.8l-.71-.71-.29.29v.41h1Zm1.7-2.2l-.71-.71-.29.29v.41h1Zm.3-.5l-.71-.71-.29.29v.41h1Zm.3-.3l.71.71h0l-.71-.71Zm.1-.2l-.89-.45-.11.21v.24h1Zm.3-.5l-.71-.71-.11.11-.07.14.89.45Zm.7-1l-.82-.57h0s0,.01,0,.01l.83.56Zm6.4-7l.5.86.11-.07.09-.09-.71-.71Zm.3-.2l-.45-.89-.15.07-.11.11.71.71Zm.7-.3l-.27-.96h-.02s-.02.01-.02.01l.32.95Zm12.5,8.4l-.82.57h0s.82-.57.82-.57Zm30.6,9.3v-1h-.41l-.29.29.71.71Zm1-.2v-1h-.41l-.29.29.71.71Zm.6-.2v-1h-1v1h1Zm1.1-.4v-1h-.24l-.21.11.45.89Zm.1,0v1h.24l.21-.11-.45-.89Zm.5-.3l.71.71h0l-.71-.71Zm.1-.1l-.71-.71h0l.71.71Zm.4-.2v-1h-.24l-.21.11.45.89Zm.2-.1v1h.41l.29-.29-.71-.71Zm.3-.2v-1h-.41l-.29.29.71.71Zm.2-.1v1h.41l.29-.29-.71-.71Zm.3-.2v-1h-.41l-.29.29.71.71Zm.2-.1v1h.41l.29-.29-.71-.71Zm.3-.2v-1h-.41l-.29.29.71.71Zm.2-.1v1h.41l.29-.29-.71-.71Zm.3-.2v1h.41l.29-.29-.71-.71Zm.2-.1v1h.41l.29-.29-.71-.71Zm.3-.3l-.71-.71h0l.71.71Zm.1-.1l.71.71.64-.64-.58-.7-.77.64Zm-45-28.3l-.41.91h0s.4-.91.4-.91Zm15.2-35.8l.57-.82h-.02s-.02-.02-.02-.02l-.54.84Zm5.7,9.8h33.3v-2h-33.3v2Zm34.3-1.03c-.41-15.55-8.1-28.85-21.76-37.62l-1.08,1.68c13.14,8.43,20.45,21.13,20.84,35.98l2-.05Zm-21.76-37.62c-10.79-6.92-24.88-10.66-39.84-10.66v2c14.64,0,28.35,3.66,38.76,10.34l1.08-1.68Zm-39.84-10.66c-15.16,0-29.75,3.84-40.93,10.75l1.05,1.7c10.82-6.69,25.03-10.45,39.87-10.45v-2Zm-40.93,10.75C8.21,28.61,0,42.42,0,58.4h2c0-15.22,7.79-28.41,21.93-37.15l-1.05-1.7ZM0,58.4c0,15.07,7.3,28.15,21.4,38.6l1.19-1.61C8.9,85.25,2,72.73,2,58.4H0Zm21.4,38.6c9,6.78,20.1,11.92,30.59,16.61l.82-1.83c-10.51-4.7-21.41-9.76-30.21-16.39l-1.2,1.6Zm31.71,16.41s.07-.07.1-.1c.02-.03.05-.05.1-.1l-1.41-1.41c-.05.05-.08.07-.1.1-.03.03-.05.05-.1.1l1.41,1.41Zm-.51.09c.21,0,.43-.06.63-.2.17-.12.27-.26.3-.31.1-.15.02-.03-.02.02l-1.41-1.41c-.09.08-.14.17-.18.23-.02.03-.03.05-.04.06,0,.02,0,.01,0,0,0-.01.08-.12.22-.22.08-.05.16-.1.26-.13.1-.03.18-.04.25-.04v2Zm.91-.49s0,0,0,0c0,0,0,0,0,0h0s0,0,0,0,0,0,0,0c0,0,0,0,0,0,0,0,0,0,0,0,0,0,0,0,0,0,0,0,0,0,0,0,0,0,0,0,0,0,0,0,0,0,0,0,0,0,0,0,0,0h0s0,0,0,0c0,0,0,0,0,0,0,0,0,0,0,0,0,0,0,0,0,0,0,0,0,0,0,0,0,0,0,0,0,0,0,0,0,0,0,0h0s0,0,0,0c0,0,0,0,0,0,0,0,0,0,0,0,0,0,0,0,0,0,0,0,0,0,0,0,0,0,0,0,0,0,0,0,0,0,0,0h0s0,0,0,0c0,0,0,0,0,0,0,0,0,0,0,0,0,0,0,0,0,0h0s0,0,0,0c0,0,0,0,0,0h0s0,0,0,0c0,0,0,0,0,0,0,0,0,0,0,0h0s0,0,0,0c0,0,0,0,0,0,0,0,0,0,0,0,0,0,0,0,0,0h0s0,0,0,0h0s0,0,0,0c0,0,0,0,0,0,0,0,0,0,0,0,0,0,0,0,0,0,0,0,0,0,0,0,0,0,0,0,0,0,0,0,0,0,0,0h0s0,0,0,0,0,0,0,0c0,0,0,0,0,0,0,0,0,0,0,0,0,0,0,0,0,0,0,0,0,0,0,0s0,0,0,0c0,0,0,0,0,0,0,0,0,0,0,0,0,0,0,0,0,0h0s0,0,0,0c0,0,0,0,0,0,0,0,0,0,0,0,0,0,0,0,0,0,0,0,0,0,0,0,0,0,0,0,0,0,0,0,0,0,0,0h0s0,0,0,0c0,0,0,0,0,0,0,0,0,0,0,0,0,0,0,0,0,0,0,0,0,0,0,0h0s0,0,0,0,0,0,0,0h0s0,0,0,0c0,0,0,0,0,0,0,0,0,0,0,0,0,0,0,0,0,0h0s0,0,0,0c0,0,0,0,0,0h0s0,0,0,0c0,0,0,0,0,0,0,0,0,0,0,0h0s0,0,0,0c0,0,0,0,0,0,0,0,0,0,0,0,0,0,0,0,0,0,0,0,0,0,0,0h0s0,0,0,0c0,0,0,0,0,0,0,0,0,0,0,0h0s0,0,0,0c0,0,0,0,0,0,0,0,0,0,0,0h0s0,0,0,0,0,0,0,0c0,0,0,0,0,0,0,0,0,0,0,0,0,0,0,0,0,0,0,0,0,0,0,0,0,0,0,0,0,0,0,0,0,0,0,0,0,0,0,0,0,0h0s0,0,0,0c0,0,0,0,0,0,0,0,0,0,0,0,0,0,0,0,0,0,0,0,0,0,0,0,0,0,0,0,0,0,0,0,0,0,0,0h0s0,0,0,0c0,0,0,0,0,0,0,0,0,0,0,0,0,0,0,0,0,0,0,0,0,0,0,0h0s0,0,0,0h0s0,0,0,0c0,0,0,0,0,0,0,0,0,0,0,0,0,0,0,0,0,0h0s0,0,0,0c0,0,0,0,0,0h0s0,0,0,0c0,0,0,0,0,0,0,0,0,0,0,0h0s0,0,0,0c0,0,0,0,0,0,0,0,0,0,0,0,0,0,0,0,0,0,0,0,0,0,0,0h0s0,0,0,0h0s0,0,0,0c0,0,0,0,0,0,0,0,0,0,0,0,0,0,0,0,0,0h0s0,0,0,0,0,0,0,0c0,0,0,0,0,0,0,0,0,0,0,0,0,0,0,0,0,0,0,0,0,0,0,0s0,0,0,0c0,0,0,0,0,0,0,0,0,0,0,0,0,0,0,0,0,0h0s0,0,0,0c0,0,0,0,0,0,0,0,0,0,0,0,0,0,0,0,0,0,0,0,0,0,0,0,0,0,0,0,0,0,0,0,0,0,0,0h0s0,0,0,0c0,0,0,0,0,0,0,0,0,0,0,0,0,0,0,0,0,0,0,0,0,0,0,0h0s0,0,0,0h0s0,0,0,0c0,0,0,0,0,0,0,0,0,0,0,0h0s0,0,0,0,0,0,0,0h0s0,0,0,0c0,0,0,0,0,0h0s0,0,0,0h0s0,0,0,0c0,0,0,0,0,0,0,0,0,0,0,0,0,0,0,0,0,0,0,0,0,0,0,0h0s0,0,0,0c0,0,0,0,0,0h0s0,0,0,0c0,0,0,0,0,0l-1.41-1.41s0,0,0,0c0,0,0,0,0,0h0s0,0,0,0,0,0,0,0c0,0,0,0,0,0,0,0,0,0,0,0,0,0,0,0,0,0,0,0,0,0,0,0,0,0,0,0,0,0,0,0,0,0,0,0,0,0,0,0,0,0h0s0,0,0,0c0,0,0,0,0,0,0,0,0,0,0,0,0,0,0,0,0,0,0,0,0,0,0,0,0,0,0,0,0,0,0,0,0,0,0,0h0s0,0,0,0c0,0,0,0,0,0,0,0,0,0,0,0,0,0,0,0,0,0,0,0,0,0,0,0,0,0,0,0,0,0h0s0,0,0,0c0,0,0,0,0,0,0,0,0,0,0,0,0,0,0,0,0,0,0,0,0,0,0,0h0s0,0,0,0c0,0,0,0,0,0h0s0,0,0,0c0,0,0,0,0,0,0,0,0,0,0,0h0s0,0,0,0c0,0,0,0,0,0,0,0,0,0,0,0,0,0,0,0,0,0h0s0,0,0,0h0s0,0,0,0c0,0,0,0,0,0,0,0,0,0,0,0,0,0,0,0,0,0,0,0,0,0,0,0,0,0,0,0,0,0,0,0,0,0,0,0h0s0,0,0,0,0,0,0,0c0,0,0,0,0,0,0,0,0,0,0,0,0,0,0,0,0,0,0,0,0,0,0,0,0,0,0,0,0,0,0,0,0,0,0,0,0,0,0,0,0,0,0,0,0,0,0,0h0s0,0,0,0c0,0,0,0,0,0,0,0,0,0,0,0,0,0,0,0,0,0,0,0,0,0,0,0,0,0,0,0,0,0,0,0,0,0,0,0h0s0,0,0,0c0,0,0,0,0,0,0,0,0,0,0,0,0,0,0,0,0,0,0,0,0,0,0,0h0s0,0,0,0h0s0,0,0,0c0,0,0,0,0,0,0,0,0,0,0,0,0,0,0,0,0,0,0,0,0,0,0,0h0s0,0,0,0c0,0,0,0,0,0h0s0,0,0,0c0,0,0,0,0,0,0,0,0,0,0,0h0s0,0,0,0c0,0,0,0,0,0,0,0,0,0,0,0,0,0,0,0,0,0,0,0,0,0,0,0h0s0,0,0,0c0,0,0,0,0,0,0,0,0,0,0,0h0s0,0,0,0c0,0,0,0,0,0,0,0,0,0,0,0h0s0,0,0,0,0,0,0,0c0,0,0,0,0,0,0,0,0,0,0,0,0,0,0,0,0,0,0,0,0,0,0,0,0,0,0,0,0,0,0,0,0,0,0,0,0,0,0,0,0,0h0s0,0,0,0c0,0,0,0,0,0,0,0,0,0,0,0,0,0,0,0,0,0,0,0,0,0,0,0,0,0,0,0,0,0,0,0,0,0,0,0h0s0,0,0,0c0,0,0,0,0,0,0,0,0,0,0,0,0,0,0,0,0,0,0,0,0,0,0,0h0s0,0,0,0c0,0,0,0,0,0,0,0,0,0,0,0,0,0,0,0,0,0,0,0,0,0,0,0,0,0,0,0,0,0h0s0,0,0,0c0,0,0,0,0,0h0s0,0,0,0c0,0,0,0,0,0,0,0,0,0,0,0h0s0,0,0,0c0,0,0,0,0,0,0,0,0,0,0,0,0,0,0,0,0,0,0,0,0,0,0,0h0s0,0,0,0h0s0,0,0,0c0,0,0,0,0,0,0,0,0,0,0,0,0,0,0,0,0,0h0s0,0,0,0,0,0,0,0c0,0,0,0,0,0,0,0,0,0,0,0,0,0,0,0,0,0,0,0,0,0,0,0s0,0,0,0c0,0,0,0,0,0,0,0,0,0,0,0,0,0,0,0,0,0h0s0,0,0,0c0,0,0,0,0,0,0,0,0,0,0,0,0,0,0,0,0,0,0,0,0,0,0,0,0,0,0,0,0,0,0,0,0,0,0,0h0s0,0,0,0c0,0,0,0,0,0,0,0,0,0,0,0,0,0,0,0,0,0,0,0,0,0,0,0h0s0,0,0,0h0s0,0,0,0c0,0,0,0,0,0,0,0,0,0,0,0h0s0,0,0,0c0,0,0,0,0,0h0s0,0,0,0c0,0,0,0,0,0h0s0,0,0,0h0s0,0,0,0c0,0,0,0,0,0,0,0,0,0,0,0,0,0,0,0,0,0,0,0,0,0,0,0h0s0,0,0,0c0,0,0,0,0,0h0s0,0,0,0c0,0,0,0,0,0l1.41,1.41Zm-.41,0c.2,0,.42-.05.61-.18.19-.13.3-.29.37-.42.06-.13.09-.24.1-.32,0-.04.01-.08.01-.1,0-.01,0-.03,0-.04,0,0,0-.01,0-.02,0,0,0,0,0,0h0s0,0-1,0-1,0-1,0h0s0-.01,0-.01c0,0,0-.01,0-.02,0-.01,0-.02,0-.03,0-.02,0-.05,0-.08,0-.06.03-.15.08-.25.05-.11.15-.24.31-.35.17-.11.35-.15.5-.15v2Zm.81-.39c.05-.05.12-.12.2-.2.07-.07.15-.15.2-.2l-1.41-1.41c-.05.05-.13.12-.2.2-.08.08-.15.15-.2.2l1.41,1.41Zm-.31-1.11c-.97.24-.35.94.58.82.02-.01.05-.04.07-.06s.03-.03.03-.03c0,0,.01-.01.01-.01,0,0,0,0,0,0,0,0,0,0,0,0,0,0,0,0,0,0,0,0,0,0,0,0,0,0,0,0,.01-.01.01-.01.04-.04.09-.09l-1.41-1.41s-.07.07-.09.09c0,0,0,0-.01.01,0,0,0,0,0,0,0,0,0,0,0,0,0,0,0,0,0,0,0,0,0,0,0,0,0,0,0,0,.01-.01,0,0,.01-.01.03-.03s.05-.04.07-.06c.93-.12,1.55.58.58.82Zm.81.61s.07-.08.1-.11c.02-.03.05-.06.06-.08.04-.05.05-.06.06-.08.03-.03,0,.02-.08.05l-.89-1.79c-.28.14-.46.33-.56.45-.05.06-.09.12-.11.14-.03.04-.02.02,0,0l1.41,1.41Zm-.31-.11c.2,0,.45-.05.67-.23.22-.17.32-.38.36-.52.05-.13.06-.25.06-.31,0-.06,0-.12,0-.14h-2s0,.02,0,0c0-.01,0-.09.04-.19.03-.1.12-.28.31-.43.2-.15.41-.19.56-.19v2Zm.81-.49c.05-.05.1-.1.15-.15.05-.05.1-.1.15-.15l-1.41-1.41c-.05.05-.1.1-.15.15-.05.05-.1.1-.15.15l1.41,1.41Zm.3-.3c.05-.05.08-.07.1-.1.02-.03.05-.05.1-.1l-1.41-1.41s-.08.07-.1.1c-.02.03-.05.05-.1.1l1.41,1.41Zm.2-.2s.14-.14.23-.26c.08-.11.26-.37.26-.75h-2c0-.14.04-.26.07-.33.03-.07.06-.11.07-.12.01-.01.02-.02,0,0-.01.01-.02.03-.05.05l1.41,1.41Zm.2-.3c.05-.05.07-.07.1-.1.02-.03.05-.05.1-.1l-1.41-1.41s-.08.07-.1.1c-.03.03-.05.05-.1.1l1.41,1.41Zm.2-.2c.18-.18.26-.36.29-.41.02-.05-.01.03-.09.11l-1.41-1.41c-.18.18-.26.36-.29.41-.02.05.01-.03.09-.11l1.41,1.41Zm.2-.3c.05-.05.08-.07.1-.1.02-.03.05-.05.1-.1l-1.41-1.41s-.08.07-.1.1c-.02.03-.05.05-.1.1l1.41,1.41Zm.2-.2c.18-.18.26-.36.29-.41.02-.05-.01.03-.09.11l-1.41-1.41c-.18.18-.26.36-.29.41-.02.05.01-.03.09-.11l1.41,1.41Zm.2-.3c.05-.05.08-.07.1-.1.02-.03.05-.05.1-.1l-1.41-1.41c-.05.05-.08.07-.1.1s-.05.05-.1.1l1.41,1.41Zm.2-.2c.18-.18.26-.36.29-.41.02-.05-.01.03-.09.11l-1.41-1.41c-.18.18-.26.36-.29.41-.02.05.01-.03.09-.11l1.41,1.41Zm.2-.3s0,0,0,0c0,0,0,0,0,0h0s0,0,0,0c0,0,0,0,0,0,0,0,0,0,0,0h0s0,0,0,0h0s0,0,0,0c0,0,0,0,0,0,0,0,0,0,0,0,0,0,0,0,0,0,0,0,0,0,0,0,0,0,0,0,0,0h0s0,0,0,0c0,0,0,0,0,0,0,0,0,0,0,0,0,0,0,0,0,0,0,0,0,0,0,0,0,0,0,0,0,0,0,0,0,0,0,0h0s0,0,0,0c0,0,0,0,0,0,0,0,0,0,0,0,0,0,0,0,0,0,0,0,0,0,0,0h0s0,0,0,0c0,0,0,0,0,0h0s0,0,0,0,0,0,0,0h0s0,0,0,0c0,0,0,0,0,0,0,0,0,0,0,0,0,0,0,0,0,0,0,0,0,0,0,0h0s0,0,0,0c0,0,0,0,0,0,0,0,0,0,0,0,0,0,0,0,0,0h0s0,0,0,0c0,0,0,0,0,0,0,0,0,0,0,0h0s0,0,0,0c0,0,0,0,0,0h0s0,0,0,0h0s0,0,0,0c0,0,0,0,0,0,0,0,0,0,0,0h0s0,0,0,0h0s0,0,0,0h0s0,0,0,0c0,0,0,0,0,0,0,0,0,0,0,0h0s0,0,0,0c0,0,0,0,0,0h0s0,0,0,0h0s0,0,0,0c0,0,0,0,0,0,0,0,0,0,0,0,0,0,0,0,0,0,0,0,0,0,0,0,0,0,0,0,0,0h0s0,0,0,0c0,0,0,0,0,0,0,0,0,0,0,0h0s0,0,0,0c0,0,0,0,0,0,0,0,0,0,0,0h0s0,0,0,0h0s0,0,0,0h0s0,0,0,0c0,0,0,0,0,0h0s0,0,0,0h0s0,0,0,0h0s0,0,0,0c0,0,0,0,0,0,0,0,0,0,0,0,0,0,0,0,0,0h0s0,0,0,0c0,0,0,0,0,0h0s0,0,0,0c0,0,0,0,0,0,0,0,0,0,0,0,0,0,0,0,0,0h0s0,0,0,0h0s0,0,0,0c0,0,0,0,0,0h0s0,0,0,0h0s0,0,0,0h0s0,0,0,0h0s0,0,0,0c0,0,0,0,0,0t0,0s0,0,0,0c0,0,0,0,0,0,0,0,0,0,0,0,0,0,0,0,0,0h0s0,0,0,0h0s0,0,0,0c0,0,0,0,0,0,0,0,0,0,0,0,0,0,0,0,0,0,0,0,0,0,0,0,0,0,0,0,0,0,0,0,0,0,0,0,0,0,0,0,0,0,0,0,0,0,0,0,0,0,0,0,0,0,0,0,0,0,0,0h0s0,0,0,0c0,0,0,0,0,0,0,0,0,0,0,0h0s0,0,0,0h0s0,0,0,0c0,0,0,0,0,0h0s0,0,0,0h0s0,0,0,0h0s0,0,0,0c0,0,0,0,0,0,0,0,0,0,0,0,0,0,0,0,0,0,0,0,0,0,0,0h0s0,0,0,0h0s0,0,0,0h0s0,0,0,0h0s0,0,0,0c0,0,0,0,0,0,0,0,0,0,0,0h0s0,0,0,0c0,0,0,0,0,0,0,0,0,0,0,0,0,0,0,0,0,0h0s0,0,0,0c0,0,0,0,0,0,0,0,0,0,0,0h0s0,0,0,0c0,0,0,0,0,0,0,0,0,0,0,0,0,0,0,0,0,0,0,0,0,0,0,0h0s0,0,0,0h0s0,0,0,0c0,0,0,0,0,0h0s0,0,0,0c0,0,0,0,0,0,0,0,0,0,0,0h0s0,0,0,0h0s0,0,0,0c0,0,0,0,0,0,0,0,0,0,0,0h0s0,0,0,0h0s0,0,0,0c0,0,0,0,0,0,0,0,0,0,0,0h0s0,0,0,0c0,0,0,0,0,0,0,0,0,0,0,0,0,0,0,0,0,0,0,0,0,0,0,0s0,0,0,0c0,0,0,0,0,0h0s0,0,0,0c0,0,0,0,0,0,0,0,0,0,0,0h0s0,0,0,0h0s0,0,0,0,0,0,0,0c0,0,0,0,0,0l-1.41-1.41s0,0,0,0c0,0,0,0,0,0h0s0,0,0,0h0s0,0,0,0h0s0,0,0,0h0s0,0,0,0c0,0,0,0,0,0,0,0,0,0,0,0,0,0,0,0,0,0,0,0,0,0,0,0,0,0,0,0,0,0h0s0,0,0,0c0,0,0,0,0,0,0,0,0,0,0,0,0,0,0,0,0,0,0,0,0,0,0,0,0,0,0,0,0,0,0,0,0,0,0,0h0s0,0,0,0c0,0,0,0,0,0,0,0,0,0,0,0,0,0,0,0,0,0,0,0,0,0,0,0h0s0,0,0,0c0,0,0,0,0,0h0s0,0,0,0c0,0,0,0,0,0h0s0,0,0,0c0,0,0,0,0,0,0,0,0,0,0,0t0,0s0,0,0,0h0s0,0,0,0c0,0,0,0,0,0,0,0,0,0,0,0,0,0,0,0,0,0h0s0,0,0,0c0,0,0,0,0,0,0,0,0,0,0,0h0s0,0,0,0c0,0,0,0,0,0h0s0,0,0,0h0s0,0,0,0c0,0,0,0,0,0,0,0,0,0,0,0h0s0,0,0,0h0s0,0,0,0h0s0,0,0,0c0,0,0,0,0,0,0,0,0,0,0,0h0s0,0,0,0c0,0,0,0,0,0h0s0,0,0,0h0s0,0,0,0c0,0,0,0,0,0,0,0,0,0,0,0,0,0,0,0,0,0,0,0,0,0,0,0,0,0,0,0,0,0h0s0,0,0,0h0s0,0,0,0h0s0,0,0,0c0,0,0,0,0,0h0s0,0,0,0h0s0,0,0,0h0s0,0,0,0c0,0,0,0,0,0h0s0,0,0,0h0s0,0,0,0h0s0,0,0,0c0,0,0,0,0,0,0,0,0,0,0,0,0,0,0,0,0,0h0s0,0,0,0c0,0,0,0,0,0h0s0,0,0,0c0,0,0,0,0,0,0,0,0,0,0,0t0,0h0s0,0,0,0h0s0,0,0,0c0,0,0,0,0,0h0s0,0,0,0h0s0,0,0,0h0s0,0,0,0h0s0,0,0,0c0,0,0,0,0,0t0,0s0,0,0,0c0,0,0,0,0,0,0,0,0,0,0,0,0,0,0,0,0,0h0s0,0,0,0h0s0,0,0,0c0,0,0,0,0,0,0,0,0,0,0,0,0,0,0,0,0,0,0,0,0,0,0,0,0,0,0,0,0,0,0,0,0,0,0,0,0,0,0,0,0,0,0,0,0,0,0,0,0,0,0,0,0,0,0,0,0,0,0,0h0s0,0,0,0c0,0,0,0,0,0,0,0,0,0,0,0h0s0,0,0,0h0s0,0,0,0c0,0,0,0,0,0h0s0,0,0,0h0s0,0,0,0h0s0,0,0,0c0,0,0,0,0,0,0,0,0,0,0,0,0,0,0,0,0,0,0,0,0,0,0,0h0s0,0,0,0h0s0,0,0,0h0s0,0,0,0h0s0,0,0,0c0,0,0,0,0,0,0,0,0,0,0,0h0s0,0,0,0c0,0,0,0,0,0,0,0,0,0,0,0,0,0,0,0,0,0h0s0,0,0,0c0,0,0,0,0,0,0,0,0,0,0,0h0s0,0,0,0c0,0,0,0,0,0,0,0,0,0,0,0,0,0,0,0,0,0,0,0,0,0,0,0h0s0,0,0,0h0s0,0,0,0c0,0,0,0,0,0h0s0,0,0,0c0,0,0,0,0,0,0,0,0,0,0,0h0s0,0,0,0h0s0,0,0,0c0,0,0,0,0,0,0,0,0,0,0,0h0s0,0,0,0h0s0,0,0,0c0,0,0,0,0,0,0,0,0,0,0,0h0s0,0,0,0c0,0,0,0,0,0,0,0,0,0,0,0,0,0,0,0,0,0,0,0,0,0,0,0s0,0,0,0c0,0,0,0,0,0h0s0,0,0,0c0,0,0,0,0,0,0,0,0,0,0,0h0s0,0,0,0h0s0,0,0,0,0,0,0,0c0,0,0,0,0,0l1.41,1.41Zm.2-.2c.18-.18.26-.36.29-.41.02-.05-.01.03-.09.11l-1.41-1.41c-.18.18-.26.36-.29.41-.02.05.01-.03.09-.11l1.41,1.41Zm.2-.3s.06-.06.09-.1c.04-.04.12-.13.18-.26.07-.15.1-.28.11-.39,0-.08,0-.15,0-.16h-2s0,0,0-.04c0-.07.03-.19.09-.31.05-.11.11-.17.12-.18,0,0,.01-.01-.02.02l1.41,1.41Zm.1-.2s.14-.14.23-.26c.08-.11.26-.37.26-.75h-2c0-.14.04-.26.07-.33.03-.07.06-.11.07-.12.01-.01.02-.02,0,0-.01.01-.02.03-.05.05l1.41,1.41Zm.49-1.01c0,.07,0,.15-.03.24-.02.08-.06.16-.09.22-.04.06-.07.1-.09.13-.02.02-.03.04-.02.03,0,0,.03-.03.06-.07.03-.04.08-.09.12-.17.05-.08.09-.17.12-.27.03-.1.04-.21.04-.3h-2c0-.07,0-.15.03-.24.02-.09.06-.16.09-.22.04-.06.07-.1.09-.13.02-.02.03-.04.02-.03,0,0-.03.03-.06.07-.03.04-.08.09-.12.17-.05.08-.09.17-.12.27-.03.1-.04.21-.04.3h2Zm-.19.51c.05-.05.1-.1.15-.15.05-.05.1-.1.15-.15l-1.41-1.41c-.05.05-.1.1-.15.15-.05.05-.1.1-.15.15l1.41,1.41Zm-.41-1.01q.71.71.71.71s0,0,0,0h0s0,0,0,0c0,0,0,0,0,0,0,0,0,0,0,0,0,0,0-.01.02-.02.01-.01.02-.03.04-.04.03-.03.07-.08.11-.14.06-.09.22-.34.22-.69h-2c0-.14.03-.24.06-.3.02-.06.05-.1.06-.12.01-.02.03-.04.04-.05,0,0,.01-.01.02-.02,0,0,0,0,0-.01,0,0,0,0,0,0,0,0,0,0,0,0,0,0,0,0,0,0h0s0,0,0,0t.71.71Zm.99.25s.04-.07.09-.14c.05-.08.13-.2.21-.36l-1.79-.89s-.04.07-.09.14c-.05.07-.13.2-.21.36l1.79.89Zm.11-.24c.22-.22.39-.47.52-.67.06-.1.12-.2.17-.28.05-.08.09-.15.13-.21l-1.66-1.11c-.06.09-.12.19-.17.27-.05.09-.1.17-.15.24-.1.15-.18.26-.25.33l1.41,1.41Zm.82-1.14c2.02-2.93,3.9-5.43,6.08-6.7l-1.01-1.73c-2.62,1.53-4.74,4.43-6.72,7.3l1.65,1.14Zm6.28-6.86c-.08.08-.16.11-.11.09.05-.03.23-.11.41-.29l-1.41-1.41c.08-.08.16-.11.11-.09-.05.03-.23.11-.41.29l1.41,1.41Zm.04-.01c.19-.1.34-.17.57-.25l-.63-1.9c-.37.12-.62.25-.83.35l.89,1.79Zm.53-.23c.73-.21,1.29-.36,1.83-.36v-2c-.86,0-1.7.25-2.37.44l.55,1.92Zm1.83-.36c1.84,0,3.42.89,4.99,2.42,1.58,1.56,3.02,3.67,4.59,5.94l1.65-1.13c-1.53-2.23-3.09-4.51-4.83-6.23-1.76-1.74-3.82-3-6.39-3v2Zm9.58,8.37c1.58,2.28,3.27,4.71,5.16,6.57,1.9,1.86,4.14,3.26,6.86,3.26v-2c-1.98,0-3.74-1-5.46-2.69-1.73-1.7-3.3-3.96-4.92-6.28l-1.64,1.14Zm12.02,9.83h17.3v-2h-17.3v2Zm17.3,0h.7v-2h-.7v2Zm.7,0h.2v-2h-.2v2Zm.2,0h.5v-2h-.5v2Zm.5,0h.3v-2h-.3v2Zm.3,0s.2,0,.36-.03c.14-.02.47-.1.74-.37l-1.41-1.41c.09-.09.18-.14.24-.16.05-.02.09-.03.1-.03.02,0,.02,0-.03,0v2Zm.4-.1h.3v-2h-.3v2Zm.3,0c.09,0,.17-.01.22-.02.05-.01.1-.02.14-.03.07-.02.13-.04.16-.05.02,0,.03-.01.04-.01.01,0,.01,0,.01,0,0,0-.01,0-.04,0-.02,0-.07.01-.14.01v-2c-.09,0-.17.01-.22.02-.05.01-.1.02-.14.03-.07.02-.13.04-.16.05-.02,0-.03.01-.04.01-.01,0-.01,0-.01,0,0,0,.01,0,.04,0,.02,0,.07-.01.14-.01v2Zm.4-.1c.11,0,.6.02,1.01-.39l-1.41-1.41s.08-.07.14-.11c.06-.03.12-.06.17-.07.09-.02.16-.02.09-.02v2Zm.3-.1c.09,0,.17-.01.22-.02.05-.01.1-.02.14-.03.07-.02.13-.04.16-.05.02,0,.03-.01.04-.01.01,0,.01,0,.01,0,0,0-.01,0-.04,0-.02,0-.07.01-.14.01v-2c-.09,0-.17.01-.22.02-.05.01-.1.02-.14.03-.07.02-.13.04-.16.05-.02,0-.03.01-.04.01-.01,0-.01,0-.01,0,0,0,.01,0,.04,0,.02,0,.07-.01.14-.01v2Zm.4-.1s.08,0,.14,0c.06,0,.18-.01.31-.06.14-.05.35-.15.52-.36.18-.23.23-.47.23-.67h-2c0-.15.04-.36.19-.56.15-.19.32-.27.43-.31.1-.03.17-.04.19-.04.02,0,.03,0,0,0v2Zm.2-.1c.09,0,.17-.01.22-.02.05-.01.1-.02.13-.03.07-.02.13-.04.16-.05.02,0,.03-.01.04-.01.01,0,.01,0,.01,0,0,0-.01,0-.04,0-.02,0-.07.01-.13.01v-2c-.09,0-.17.01-.22.02-.05.01-.1.02-.14.03-.07.02-.13.04-.16.05-.02,0-.03.01-.04.01-.01,0-.01,0-.01,0,0,0,.01,0,.04,0,.02,0,.07-.01.14-.01v2Zm.4-.1s.08,0,.16,0c.1,0,.24-.04.39-.11.13-.07.22-.14.26-.18.04-.04.08-.08.1-.09l-1.41-1.41s-.03.03-.02.02c0,0,.08-.07.18-.12.12-.06.23-.08.31-.09.04,0,.08,0,.04,0v2Zm.91-.39c-.09.09-.18.14-.22.15-.03.01-.04.01,0,0,0,0,.02,0,.03,0,.01,0,.03,0,.04-.01.03,0,.06-.02.1-.03.08-.03.18-.06.29-.12l-.89-1.79s.01,0-.11.03c-.05.01-.14.04-.25.09-.11.05-.26.13-.4.27l1.41,1.41Zm-.21.09h.1v-2h-.1v2Zm.55-.11c.09-.05.22-.11.34-.18.1-.06.27-.16.42-.31l-1.41-1.41s.05-.04.04-.04c0,0-.02.01-.05.03-.06.03-.13.07-.24.12l.89,1.79Zm.76-.49l.1-.1-1.41-1.41-.1.1,1.41,1.41Zm.1-.1s-.08.07-.12.1c-.04.02-.06.03-.05.03,0,0,.01,0,.03-.01.02,0,.04-.02.07-.03.06-.02.13-.05.21-.09l-.89-1.79c-.05.03-.05.02-.16.07-.11.05-.31.13-.5.32l1.41,1.41Zm-.31.09c.1,0,.2-.01.3-.04.1-.03.19-.07.27-.12.07-.04.13-.09.17-.12.03-.03.06-.06.06-.06.01-.01,0,0-.03.02-.02.02-.07.06-.13.09-.06.04-.13.07-.22.09-.08.02-.17.03-.24.03v-2c-.1,0-.2.01-.3.04-.1.03-.19.07-.27.12-.07.05-.13.09-.17.12-.03.03-.06.06-.06.06,0,0,0,0,.03-.02.02-.02.07-.06.13-.09.06-.04.13-.07.22-.09.08-.02.17-.03.24-.03v2Zm.91-.39c-.08.08-.16.11-.11.09.05-.03.23-.11.41-.29l-1.41-1.41c.08-.08.16-.11.11-.09-.05.03-.23.11-.41.29l1.41,1.41Zm-.41.09c.1,0,.2-.01.3-.04.1-.03.19-.07.27-.12.07-.04.13-.09.17-.12.03-.03.06-.06.06-.06.01-.01,0,0-.03.03-.02.02-.07.06-.13.09-.06.04-.13.07-.22.09-.08.02-.16.03-.24.03v-2c-.1,0-.2.01-.3.04-.1.03-.19.07-.27.12-.07.04-.13.09-.17.12-.03.03-.06.06-.07.06,0,.01,0,0,.03-.03.02-.02.07-.06.13-.09.06-.04.14-.07.22-.09.08-.02.16-.03.24-.03v2Zm.91-.39c-.08.08-.16.11-.11.09.05-.03.23-.11.41-.29l-1.41-1.41c.08-.08.16-.11.11-.09-.05.03-.23.11-.41.29l1.41,1.41Zm-.41.09c.1,0,.2-.01.3-.04.1-.03.19-.07.27-.12.07-.05.13-.09.17-.12.03-.03.06-.06.06-.06.01,0,0,0-.03.03-.02.02-.07.06-.13.09-.06.04-.13.07-.22.09-.08.02-.16.03-.24.03v-2c-.1,0-.2.01-.3.04-.1.03-.19.07-.27.12-.07.04-.13.09-.17.12-.03.03-.06.06-.07.06,0,.01,0,0,.03-.02.02-.02.07-.06.13-.09.06-.04.14-.07.22-.09.08-.02.16-.03.24-.03v2Zm.91-.39c-.08.08-.16.11-.11.09.05-.03.23-.11.41-.29l-1.41-1.41c.08-.08.16-.11.11-.09-.05.03-.23.11-.41.29l1.41,1.41Zm-.41.09c.1,0,.2-.01.3-.04.1-.03.19-.07.27-.12.07-.04.13-.09.17-.12.03-.03.06-.06.06-.06.01-.01,0,0-.03.03-.02.02-.07.06-.13.09-.06.04-.13.07-.22.09-.08.02-.16.03-.24.03v-2c-.1,0-.2.01-.3.04-.1.03-.19.07-.27.12-.07.04-.13.09-.17.12-.03.03-.06.06-.07.06,0,.01,0,0,.03-.03.02-.02.07-.06.13-.09.06-.04.14-.07.22-.09.08-.02.16-.03.24-.03v2Zm.91-.39s.04-.04.05-.05c.01,0,0,0,0,0-.01.01-.06.04-.12.07-.07.03-.18.07-.33.07v-2c-.38,0-.64.18-.75.26-.12.09-.22.19-.26.23l1.41,1.41Zm-.41-.91l.71.71s0,0,0,0h0s0,0,0,0c0,0,0,0,0,0,0,0,0,0,0,.01,0,0-.01.01-.02.02-.01.01-.03.02-.05.04-.02.01-.06.04-.12.06-.06.02-.16.06-.3.06v-2c-.35,0-.61.16-.69.22-.06.04-.11.08-.14.11-.02.01-.03.03-.04.04,0,0-.01.01-.02.01h0s0,0,0,.01t0,0h0s0,0,.71.71Zm.91.61h0s0,0,0,0h0s0,0,0,0h0s0,0,0,0h0s0,0,0,0h0s0,0,0,0h0s0,0,0,0h0s0,0,0,0h0s0,0,0,0h0s0,0,0,0h0s0,0,0,0h0s0,0,0,0h0s0,0,0,0h0s0,0,0,0h0s0,0,0,0h0s0,0,0,0h0s0,0,0,0h0s0,0,0,0h0s0,0,0,0h0s0,0,0,0h0s0,0,0,0h0s0,0,0,0h0s0,0,0,0h0s0,0,0,0h0s0,0,0,0h0s0,0,0,0h0s0,0,0,0h0s0,0,0,0h0s0,0,0,0h0s0,0,0,0h0s0,0,0,0h0s0,0,0,0h0s0,0,0,0h0s0,0,0,0h0s0,0,0,0h0s0,0,0,0h0s0,0,0,0h0s0,0,0,0h0s0,0,0,0h0s0,0,0,0h0s0,0,0,0h0s0,0,0,0h0s0,0,0,0h0s0,0,0,0h0s0,0,0,0h0s0,0,0,0h0s0,0,0,0h0s0,0,0,0h0s0,0,0,0h0s0,0,0,0h0s0,0,0,0h0s0,0,0,0h0s0,0,0,0h0s0,0,0,0h0s0,0,0,0h0s0,0,0,0h0s0,0,0,0h0s0,0,0,0h0s0,0,0,0h0s0,0,0,0h0s0,0,0,0h0s0,0,0,0h0s0,0,0,0h0s0,0,0,0h0s0,0,0,0h0s0,0,0,0h0s0,0,0,0h0s0,0,0,0h0s0,0,0,0h0s0,0,0,0h0s0,0,0,0h0s0,0,0,0h0s0,0,0,0h0s0,0,0,0h0s0,0,0,0h0s0,0,0,0h0s0,0,0,0h0s0,0,0,0h0s0,0,0,0h0s0,0,0,0h0s0,0,0,0h0s0,0,0,0h0s0,0,0,0h0s0,0,0,0h0s0,0,0,0h0s0,0,0,0h0s0,0,0,0h0s0,0,0,0h0s0,0,0,0h0s0,0,0,0h0s0,0,0,0h0s0,0,0,0h0s0,0,0,0h0s0,0,0,0h0s0,0,0,0h0s0,0,0,0h0s0,0,0,0h0s0,0,0,0h0s0,0,0,0h0s0,0,0,0h0s0,0,0,0h0s0,0,0,0h0s0,0,0,0h0s0,0,0,0h0s0,0,0,0h0s0,0,0,0h0s0,0,0,0h0s0,0,0,0h0s0,0,0,0h0s0,0,0,0h0s0,0,0,0h0s0,0,0,0h0s0,0,0,0h0s0,0,0,0h0s0,0,0,0h0s0,0,0,0h0s0,0,0,0h0s0,0,0,0h0s0,0,0,0h0s0,0,0,0h0s0,0,0,0h0s0,0,0,0h0s0,0,0,0h0s0,0,0,0h0s0,0,0,0h0s0,0,0,0h0s0,0,0,0h0s0,0,0,0h0s0,0,0,0h0s0,0,0,0h0s0,0,0,0h0s0,0,0,0h0s0,0,0,0h0s0,0,0,0h0s0,0,0,0h0s0,0,0,0h0s0,0,0,0h0s0,0,0,0h0s0,0,0,0h0s0,0,0,0h0s0,0,0,0h0s0,0,0,0h0s0,0,0,0h0s0,0,0,0h0s0,0,0,0h0s0,0,0,0h0s0,0,0,0h0s0,0,0,0h0s0,0,0,0h0s0,0,0,0h0s0,0,0,0h0s0,0,0,0h0s0,0,0,0h0s0,0,0,0h0s0,0,0,0h0s0,0,0,0h0s0,0,0,0h0s0,0,0,0h0s0,0,0,0h0s0,0,0,0h0s0,0,0,0h0s0,0,0,0h0s0,0,0,0h0s0,0,0,0h0s0,0,0,0h0s0,0,0,0h0s0,0,0,0h0s0,0,0,0h0s0,0,0,0h0s0,0,0,0h0s0,0,0,0h0s0,0,0,0h0s0,0,0,0h0s0,0,0,0h0s0,0,0,0h0s0,0,0,0h0s0,0,0,0h0s0,0,0,0h0s0,0,0,0h0s0,0,0,0h0s0,0,0,0h0s0,0,0,0h0s0,0,0,0h0s0,0,0,0h0s0,0,0,0h0s0,0,0,0h0s0,0,0,0h0s0,0,0,0h0s0,0,0,0h0s0,0,0,0h0s0,0,0,0h0s0,0,0,0h0s0,0,0,0h0s0,0,0,0h0s0,0,0,0h0s0,0,0,0h0s0,0,0,0h0s0,0,0,0h0s0,0,0,0h0s0,0,0,0h0s0,0,0,0h0s0,0,0,0h0s0,0,0,0h0s0,0,0,0h0s0,0,0,0h0s0,0,0,0h0s0,0,0,0h0s0,0,0,0h0s0,0,0,0h0s0,0,0,0h0s0,0,0,0h0s0,0,0,0h0s-1.41-1.42-1.41-1.42h0s0,0,0,0h0s0,0,0,0h0s0,0,0,0h0s0,0,0,0h0s0,0,0,0h0s0,0,0,0h0s0,0,0,0h0s0,0,0,0h0s0,0,0,0h0s0,0,0,0h0s0,0,0,0h0s0,0,0,0h0s0,0,0,0h0s0,0,0,0h0s0,0,0,0h0s0,0,0,0h0s0,0,0,0h0s0,0,0,0h0s0,0,0,0h0s0,0,0,0h0s0,0,0,0h0s0,0,0,0h0s0,0,0,0h0s0,0,0,0h0s0,0,0,0h0s0,0,0,0h0s0,0,0,0h0s0,0,0,0h0s0,0,0,0h0s0,0,0,0h0s0,0,0,0h0s0,0,0,0h0s0,0,0,0h0s0,0,0,0h0s0,0,0,0h0s0,0,0,0h0s0,0,0,0h0s0,0,0,0h0s0,0,0,0h0s0,0,0,0h0s0,0,0,0h0s0,0,0,0h0s0,0,0,0h0s0,0,0,0h0s0,0,0,0h0s0,0,0,0h0s0,0,0,0h0s0,0,0,0h0s0,0,0,0h0s0,0,0,0h0s0,0,0,0h0s0,0,0,0h0s0,0,0,0h0s0,0,0,0h0s0,0,0,0h0s0,0,0,0h0s0,0,0,0h0s0,0,0,0h0s0,0,0,0h0s0,0,0,0h0s0,0,0,0h0s0,0,0,0h0s0,0,0,0h0s0,0,0,0h0s0,0,0,0h0s0,0,0,0h0s0,0,0,0h0s0,0,0,0h0s0,0,0,0h0s0,0,0,0h0s0,0,0,0h0s0,0,0,0h0s0,0,0,0h0s0,0,0,0h0s0,0,0,0h0s0,0,0,0h0s0,0,0,0h0s0,0,0,0h0s0,0,0,0h0s0,0,0,0h0s0,0,0,0h0s0,0,0,0h0s0,0,0,0h0s0,0,0,0h0s0,0,0,0h0s0,0,0,0h0s0,0,0,0h0s0,0,0,0h0s0,0,0,0h0s0,0,0,0h0s0,0,0,0h0s0,0,0,0h0s0,0,0,0h0s0,0,0,0h0s0,0,0,0h0s0,0,0,0h0s0,0,0,0h0s0,0,0,0h0s0,0,0,0h0s0,0,0,0h0s0,0,0,0h0s0,0,0,0h0s0,0,0,0h0s0,0,0,0h0s0,0,0,0h0s0,0,0,0h0s0,0,0,0h0s0,0,0,0h0s0,0,0,0h0s0,0,0,0h0s0,0,0,0h0s0,0,0,0h0s0,0,0,0h0s0,0,0,0h0s0,0,0,0h0s0,0,0,0h0s0,0,0,0h0s0,0,0,0h0s0,0,0,0h0s0,0,0,0h0s0,0,0,0h0s0,0,0,0h0s0,0,0,0h0s0,0,0,0h0s0,0,0,0h0s0,0,0,0h0s0,0,0,0h0s0,0,0,0h0s0,0,0,0h0s0,0,0,0h0s0,0,0,0h0s0,0,0,0h0s0,0,0,0h0s0,0,0,0h0s0,0,0,0h0s0,0,0,0h0s0,0,0,0h0s0,0,0,0h0s0,0,0,0h0s0,0,0,0h0s0,0,0,0h0s0,0,0,0h0s0,0,0,0h0s0,0,0,0h0s0,0,0,0h0s0,0,0,0h0s0,0,0,0h0s0,0,0,0h0s0,0,0,0h0s0,0,0,0h0s0,0,0,0h0s0,0,0,0h0s0,0,0,0h0s0,0,0,0h0s0,0,0,0h0s0,0,0,0h0s0,0,0,0h0s0,0,0,0h0s0,0,0,0h0s0,0,0,0h0s0,0,0,0h0s0,0,0,0h0s0,0,0,0h0s0,0,0,0h0s0,0,0,0h0s0,0,0,0h0s0,0,0,0h0s0,0,0,0h0s0,0,0,0h0s0,0,0,0h0s0,0,0,0h0s0,0,0,0h0s0,0,0,0h0s0,0,0,0h0s0,0,0,0h0s0,0,0,0h0s0,0,0,0h0s0,0,0,0h0s0,0,0,0h0s0,0,0,0h0s0,0,0,0h0s0,0,0,0h0s0,0,0,0h0s0,0,0,0h0s0,0,0,0h0s0,0,0,0h0s0,0,0,0h0s0,0,0,0h0s0,0,0,0h0s0,0,0,0h0s0,0,0,0h0s0,0,0,0h0s0,0,0,0h0s0,0,0,0h0s0,0,0,0h0s0,0,0,0h0s0,0,0,0h0s0,0,0,0h0s0,0,0,0h0s0,0,0,0h0s0,0,0,0h0s0,0,0,0h0s0,0,0,0h0s0,0,0,0h0s0,0,0,0h0s0,0,0,0h0s0,0,0,0h0s0,0,0,0h0s0,0,0,0h0s0,0,0,0h0s0,0,0,0h0s1.41,1.42,1.41,1.42Zm.3-.3l.1-.1-1.41-1.41-.1.1,1.41,1.41Zm.16-1.44c-11.08-13.42-29.32-21.5-45.37-28.58l-.81,1.83c16.16,7.12,33.91,15.04,44.63,28.02l1.54-1.27Zm-45.37-28.58c-8.82-3.91-17.67-7.83-24.32-12-3.32-2.08-6.04-4.19-7.92-6.35-1.88-2.16-2.86-4.29-2.86-6.44h-2c0,2.8,1.28,5.38,3.35,7.75,2.06,2.37,4.97,4.6,8.37,6.73,6.8,4.26,15.8,8.24,24.58,12.13l.81-1.83Zm-35.11-24.79c0-4.15,3.35-7.72,8.85-10.31,5.44-2.56,12.67-3.99,19.65-3.99v-2c-7.22,0-14.74,1.47-20.5,4.18-5.7,2.68-10,6.76-10,12.12h2Zm28.5-14.3c8.28,0,15.87,1.88,20.86,5.04l1.07-1.69c-5.41-3.43-13.41-5.36-21.94-5.36v2Zm20.83,5.02c4.06,2.83,5.1,5.76,5.28,8.06l1.99-.15c-.22-2.9-1.58-6.37-6.12-9.54l-1.14,1.64Z"/>
  </g>
  <path class="cls-7" d="m114.58,167.42l.68-.82h-17.06c-2.76,0-5.06-1.4-7.17-3.57-2.09-2.17-3.93-5.05-5.78-7.94l-.02-.03c-.12-.23-.32-.53-.54-.76-.14-.21-.27-.43-.41-.64-.93-1.44-1.82-2.82-2.79-4.06-2.42-3.23-4.65-4.8-7-4.8-2.15,0-3.99,1.19-5.66,2.87-1.66,1.69-3.21,3.95-4.76,6.25l-.02.03v.03s-.1.17-.1.17c-2.05,3-4.19,6.11-6.78,8.49-2.59,2.37-5.6,3.97-9.39,3.97h-20.9c-6.13,0-9.49-4.19-12.61-8.11h0c-.06-.08-.12-.15-.18-.23-1.22-1.51-2.4-2.96-3.67-4.04-1.34-1.15-2.83-1.92-4.64-1.92h-.91c-.05,0-.16,0-.28.02-.06.01-.16.03-.26.08-.09,0-.25.01-.42.1-.08,0-.14.03-.19.04-.05.02-.09.04-.12.05h-.03c-.11,0-.19.03-.25.05-.05.02-.09.04-.12.05h-.63l.22.66c1.42,4.25,3.44,8.19,6.17,11.84,3.44,4.75,7.99,8.99,13.33,12.42,10.79,6.96,24.99,10.78,39.97,10.78,22.11.2,41.07-7.44,52.29-20.98Z"/>
  <g class="cls-17">
    <path class="cls-19" d="m99.7,48.3l-1,.08.07.92h.93v-1Zm33.3,0v1h1.03l-.03-1.03-1,.03Zm-21.3-36.8l.54-.84h0s-.54.84-.54.84Zm-79.7.1l.53.85h0s-.53-.85-.53-.85Zm-1.4,75.8l.6-.8h0s-.6.8-.6.8Zm30.4,16.5l-.41.91.63.28.49-.49-.71-.71Zm.2-.2v-1h-.41l-.29.29.71.71Zm.5-.5v-1h-.41l-.29.29.71.71Zm.1-.1l-.71-.71-.29.29v.41s1,0,1,0Zm.4-.4l.97-.24-.43-1.71-1.25,1.25.71.71Zm.5-.5v-1h-.24l-.21.11.45.89Zm.1-.2l-.71-.71-.29.29v.41h1Zm.7-.8l-.71-.71-.29.29v.41h1Zm1.7-2.2l-.71-.71-.29.29v.41h1Zm.3-.5l-.71-.71-.29.29v.41h1Zm.3-.3l.71.71h0s-.71-.71-.71-.71Zm.1-.2l-.89-.45-.11.21v.24h1Zm.3-.5l-.71-.71-.11.11-.07.15.89.45Zm.7-1l-.82-.57h0s0,.01,0,.01l.83.55Zm6.4-7l.5.86.11-.07.09-.09-.71-.71Zm.3-.2l-.45-.89-.15.07-.11.11.71.71Zm.7-.3l-.27-.96h-.02s-.02.01-.02.01l.32.95Zm12.5,8.4l-.82.57h0s.82-.57.82-.57Zm30.6,9.3v-1h-.41l-.29.29.71.71Zm1-.2v-1h-.41l-.29.29.71.71Zm.6-.2v-1h-1v1h1Zm1.1-.4v-1h-.24l-.21.11.45.89Zm.1,0v1h.24l.21-.11-.45-.89Zm.5-.3l.71.71h0l-.71-.71Zm.1-.1l-.71-.71h0l.71.71Zm.4-.2v-1h-.24l-.21.11.45.89Zm.2-.1v1h.41l.29-.29-.71-.71Zm.3-.2v-1h-.41l-.29.29.71.71Zm.2-.1v1h.41l.29-.29-.71-.71Zm.3-.2v-1h-.41l-.29.29.71.71Zm.2-.1v1h.41l.29-.29-.71-.71Zm.3-.2v-1h-.41l-.29.29.71.71Zm.2-.1v1h.41l.29-.29-.71-.71Zm.3-.2v1h.41l.29-.29-.71-.71Zm.2-.1v1h.41l.29-.29-.71-.71Zm.3-.3l-.71-.71h0l.71.71Zm.1-.1l.71.71.64-.64-.58-.7-.77.64Zm-45-28.3l-.41.91h0s.4-.91.4-.91Zm15.2-35.8l.57-.82h-.02s-.02-.02-.02-.02l-.54.84Zm5.7,9.8h33.3v-2h-33.3v2Zm34.3-1.03c-.41-15.55-8.1-28.85-21.76-37.62l-1.08,1.68c13.13,8.43,20.45,21.13,20.84,35.98l2-.05Zm-21.76-37.62C101.45,3.74,87.36,0,72.4,0v2c14.64,0,28.35,3.66,38.76,10.34l1.08-1.68ZM72.4,0c-15.16,0-29.75,3.84-40.93,10.75l1.05,1.7c10.82-6.69,25.03-10.45,39.87-10.45V0ZM31.47,10.75c-14.66,9.06-22.87,22.87-22.87,38.85h2c0-15.22,7.79-28.41,21.93-37.15l-1.05-1.7ZM8.6,49.6c0,15.07,7.3,28.15,21.4,38.6l1.19-1.61c-13.7-10.15-20.6-22.67-20.6-37h-2Zm21.4,38.6c9,6.78,20.1,11.92,30.59,16.61l.82-1.83c-10.51-4.7-21.41-9.76-30.21-16.39l-1.2,1.6Zm31.71,16.41c.05-.05.08-.08.1-.1.02-.03.05-.05.1-.1l-1.41-1.41c-.05.05-.08.08-.1.1-.02.02-.05.05-.1.1l1.41,1.41Zm-.51.09c.21,0,.43-.06.63-.2.17-.12.27-.26.3-.31.1-.15.02-.03-.02.01l-1.41-1.41c-.09.08-.14.17-.18.23-.02.03-.03.05-.04.06,0,.02,0,.01,0,0,0-.01.08-.12.22-.22.08-.05.16-.1.26-.13.1-.03.18-.04.25-.04v2Zm.91-.49c.05-.05.1-.1.15-.15.05-.05.1-.1.15-.15l-1.41-1.41c-.05.05-.1.1-.15.15-.05.05-.1.1-.15.15l1.41,1.41Zm-.41,0c.2,0,.42-.05.61-.18.19-.13.3-.29.37-.42.06-.13.09-.24.1-.32,0-.04.01-.07.01-.1,0-.01,0-.03,0-.04,0,0,0-.01,0-.02,0,0,0,0,0,0h0s0,0-1,0-1,0-1,0c0,0,0,0,0,0h0s0-.01,0-.01c0,0,0-.01,0-.02,0-.01,0-.02,0-.04,0-.02,0-.05,0-.08,0-.06.03-.15.08-.25.05-.11.15-.24.31-.35.17-.11.35-.15.5-.15v2Zm.81-.39c.05-.05.12-.12.2-.2.08-.08.15-.15.2-.2l-1.41-1.41c-.05.05-.12.12-.2.2-.08.07-.15.15-.2.2l1.41,1.41Zm-.31-1.11c-.97.24-.35.94.58.82.02-.01.05-.04.07-.06.02-.01.03-.03.03-.03,0,0,.01-.01.01-.01,0,0,0,0,0,0,0,0,0,0,0,0,0,0,0,0,0,0,0,0,0,0,0,0,0,0,0,0,.01-.01.01-.01.04-.04.09-.09l-1.41-1.41c-.05.05-.07.08-.09.09,0,0,0,0-.01.01t0,0s0,0,0,0c0,0,0,0,0,0,0,0,0,0,0,0,0,0,0,0,.01-.01,0,0,.01-.01.03-.03.02-.01.05-.04.07-.06.92-.12,1.55.57.58.82Zm.81.61s.07-.08.1-.11c.02-.03.05-.06.06-.08.04-.05.05-.06.06-.08.02-.03,0,.01-.08.05l-.89-1.79c-.28.14-.46.33-.56.45-.05.06-.09.12-.11.14-.03.03-.02.02,0,0l1.41,1.41Zm-.31-.11c.2,0,.45-.05.67-.23.22-.17.32-.38.36-.52.05-.14.06-.25.06-.31,0-.06,0-.12,0-.14h-2s0,.02,0,0c0-.01,0-.09.04-.19.03-.1.12-.28.31-.43.2-.15.41-.19.56-.19v2Zm.81-.49s0,0,0,0c0,0,0,0,0,0h0s0,0,0,0,0,0,0,0c0,0,0,0,0,0,0,0,0,0,0,0,0,0,0,0,0,0,0,0,0,0,0,0,0,0,0,0,0,0,0,0,0,0,0,0,0,0,0,0,0,0h0s0,0,0,0c0,0,0,0,0,0,0,0,0,0,0,0,0,0,0,0,0,0,0,0,0,0,0,0,0,0,0,0,0,0,0,0,0,0,0,0h0s0,0,0,0c0,0,0,0,0,0,0,0,0,0,0,0,0,0,0,0,0,0,0,0,0,0,0,0,0,0,0,0,0,0h0s0,0,0,0c0,0,0,0,0,0,0,0,0,0,0,0,0,0,0,0,0,0,0,0,0,0,0,0h0s0,0,0,0c0,0,0,0,0,0h0s0,0,0,0c0,0,0,0,0,0,0,0,0,0,0,0h0s0,0,0,0c0,0,0,0,0,0,0,0,0,0,0,0,0,0,0,0,0,0h0s0,0,0,0h0s0,0,0,0c0,0,0,0,0,0,0,0,0,0,0,0,0,0,0,0,0,0,0,0,0,0,0,0,0,0,0,0,0,0,0,0,0,0,0,0h0s0,0,0,0c0,0,0,0,0,0,0,0,0,0,0,0,0,0,0,0,0,0,0,0,0,0,0,0,0,0,0,0,0,0s0,0,0,0c0,0,0,0,0,0,0,0,0,0,0,0,0,0,0,0,0,0h0s0,0,0,0c0,0,0,0,0,0,0,0,0,0,0,0,0,0,0,0,0,0,0,0,0,0,0,0,0,0,0,0,0,0,0,0,0,0,0,0h0s0,0,0,0c0,0,0,0,0,0,0,0,0,0,0,0,0,0,0,0,0,0,0,0,0,0,0,0h0s0,0,0,0h0s0,0,0,0c0,0,0,0,0,0,0,0,0,0,0,0,0,0,0,0,0,0,0,0,0,0,0,0h0s0,0,0,0c0,0,0,0,0,0h0s0,0,0,0c0,0,0,0,0,0,0,0,0,0,0,0h0s0,0,0,0c0,0,0,0,0,0,0,0,0,0,0,0,0,0,0,0,0,0,0,0,0,0,0,0h0s0,0,0,0c0,0,0,0,0,0,0,0,0,0,0,0h0s0,0,0,0c0,0,0,0,0,0,0,0,0,0,0,0h0s0,0,0,0c0,0,0,0,0,0,0,0,0,0,0,0,0,0,0,0,0,0,0,0,0,0,0,0,0,0,0,0,0,0,0,0,0,0,0,0,0,0,0,0,0,0,0,0,0,0,0,0h0s0,0,0,0c0,0,0,0,0,0,0,0,0,0,0,0,0,0,0,0,0,0,0,0,0,0,0,0,0,0,0,0,0,0,0,0,0,0,0,0h0s0,0,0,0c0,0,0,0,0,0,0,0,0,0,0,0,0,0,0,0,0,0,0,0,0,0,0,0h0s0,0,0,0c0,0,0,0,0,0,0,0,0,0,0,0,0,0,0,0,0,0,0,0,0,0,0,0,0,0,0,0,0,0h0s0,0,0,0c0,0,0,0,0,0h0s0,0,0,0c0,0,0,0,0,0,0,0,0,0,0,0h0s0,0,0,0c0,0,0,0,0,0,0,0,0,0,0,0,0,0,0,0,0,0,0,0,0,0,0,0h0s0,0,0,0h0s0,0,0,0c0,0,0,0,0,0,0,0,0,0,0,0,0,0,0,0,0,0h0s0,0,0,0,0,0,0,0c0,0,0,0,0,0,0,0,0,0,0,0,0,0,0,0,0,0,0,0,0,0,0,0s0,0,0,0c0,0,0,0,0,0,0,0,0,0,0,0,0,0,0,0,0,0h0s0,0,0,0c0,0,0,0,0,0,0,0,0,0,0,0,0,0,0,0,0,0,0,0,0,0,0,0,0,0,0,0,0,0,0,0,0,0,0,0h0s0,0,0,0c0,0,0,0,0,0,0,0,0,0,0,0,0,0,0,0,0,0,0,0,0,0,0,0h0s0,0,0,0h0s0,0,0,0c0,0,0,0,0,0,0,0,0,0,0,0h0s0,0,0,0,0,0,0,0h0s0,0,0,0c0,0,0,0,0,0h0s0,0,0,0h0s0,0,0,0c0,0,0,0,0,0,0,0,0,0,0,0,0,0,0,0,0,0,0,0,0,0,0,0h0s0,0,0,0c0,0,0,0,0,0h0s0,0,0,0c0,0,0,0,0,0l-1.41-1.41s0,0,0,0c0,0,0,0,0,0h0s0,0,0,0,0,0,0,0c0,0,0,0,0,0,0,0,0,0,0,0,0,0,0,0,0,0,0,0,0,0,0,0,0,0,0,0,0,0,0,0,0,0,0,0,0,0,0,0,0,0h0s0,0,0,0c0,0,0,0,0,0,0,0,0,0,0,0,0,0,0,0,0,0,0,0,0,0,0,0,0,0,0,0,0,0,0,0,0,0,0,0h0s0,0,0,0c0,0,0,0,0,0,0,0,0,0,0,0,0,0,0,0,0,0,0,0,0,0,0,0,0,0,0,0,0,0,0,0,0,0,0,0h0s0,0,0,0c0,0,0,0,0,0,0,0,0,0,0,0,0,0,0,0,0,0h0s0,0,0,0c0,0,0,0,0,0h0s0,0,0,0c0,0,0,0,0,0,0,0,0,0,0,0h0s0,0,0,0c0,0,0,0,0,0s0,0,0,0c0,0,0,0,0,0h0s0,0,0,0h0s0,0,0,0c0,0,0,0,0,0,0,0,0,0,0,0,0,0,0,0,0,0,0,0,0,0,0,0,0,0,0,0,0,0,0,0,0,0,0,0h0s0,0,0,0,0,0,0,0c0,0,0,0,0,0,0,0,0,0,0,0,0,0,0,0,0,0,0,0,0,0,0,0s0,0,0,0c0,0,0,0,0,0,0,0,0,0,0,0,0,0,0,0,0,0h0s0,0,0,0c0,0,0,0,0,0,0,0,0,0,0,0,0,0,0,0,0,0,0,0,0,0,0,0,0,0,0,0,0,0,0,0,0,0,0,0h0s0,0,0,0c0,0,0,0,0,0,0,0,0,0,0,0,0,0,0,0,0,0,0,0,0,0,0,0h0s0,0,0,0,0,0,0,0h0s0,0,0,0c0,0,0,0,0,0,0,0,0,0,0,0,0,0,0,0,0,0h0s0,0,0,0c0,0,0,0,0,0h0s0,0,0,0c0,0,0,0,0,0,0,0,0,0,0,0h0s0,0,0,0c0,0,0,0,0,0s0,0,0,0c0,0,0,0,0,0,0,0,0,0,0,0h0s0,0,0,0c0,0,0,0,0,0,0,0,0,0,0,0h0s0,0,0,0c0,0,0,0,0,0,0,0,0,0,0,0h0s0,0,0,0,0,0,0,0c0,0,0,0,0,0,0,0,0,0,0,0,0,0,0,0,0,0,0,0,0,0,0,0,0,0,0,0,0,0,0,0,0,0,0,0,0,0,0,0,0,0h0s0,0,0,0c0,0,0,0,0,0,0,0,0,0,0,0,0,0,0,0,0,0,0,0,0,0,0,0,0,0,0,0,0,0,0,0,0,0,0,0h0s0,0,0,0c0,0,0,0,0,0,0,0,0,0,0,0,0,0,0,0,0,0,0,0,0,0,0,0h0s0,0,0,0h0s0,0,0,0c0,0,0,0,0,0,0,0,0,0,0,0,0,0,0,0,0,0h0s0,0,0,0c0,0,0,0,0,0h0s0,0,0,0c0,0,0,0,0,0,0,0,0,0,0,0h0s0,0,0,0c0,0,0,0,0,0s0,0,0,0c0,0,0,0,0,0,0,0,0,0,0,0h0s0,0,0,0h0s0,0,0,0c0,0,0,0,0,0,0,0,0,0,0,0,0,0,0,0,0,0h0s0,0,0,0,0,0,0,0c0,0,0,0,0,0,0,0,0,0,0,0,0,0,0,0,0,0,0,0,0,0,0,0s0,0,0,0c0,0,0,0,0,0,0,0,0,0,0,0,0,0,0,0,0,0h0s0,0,0,0c0,0,0,0,0,0,0,0,0,0,0,0,0,0,0,0,0,0,0,0,0,0,0,0,0,0,0,0,0,0,0,0,0,0,0,0h0s0,0,0,0c0,0,0,0,0,0,0,0,0,0,0,0,0,0,0,0,0,0,0,0,0,0,0,0h0s0,0,0,0h0s0,0,0,0c0,0,0,0,0,0,0,0,0,0,0,0h0s0,0,0,0,0,0,0,0h0s0,0,0,0c0,0,0,0,0,0h0s0,0,0,0h0s0,0,0,0c0,0,0,0,0,0,0,0,0,0,0,0,0,0,0,0,0,0,0,0,0,0,0,0h0s0,0,0,0c0,0,0,0,0,0h0s0,0,0,0c0,0,0,0,0,0l1.41,1.41Zm.3-.3s0,0,0,0c0,0,0,0,0,0h0s0,0,0,0h0s0,0,0,0h0s0,0,0,0h0s0,0,0,0c0,0,0,0,0,0,0,0,0,0,0,0,0,0,0,0,0,0,0,0,0,0,0,0,0,0,0,0,0,0h0s0,0,0,0c0,0,0,0,0,0,0,0,0,0,0,0,0,0,0,0,0,0,0,0,0,0,0,0,0,0,0,0,0,0,0,0,0,0,0,0h0s0,0,0,0c0,0,0,0,0,0,0,0,0,0,0,0,0,0,0,0,0,0,0,0,0,0,0,0h0s0,0,0,0c0,0,0,0,0,0h0s0,0,0,0c0,0,0,0,0,0h0s0,0,0,0c0,0,0,0,0,0,0,0,0,0,0,0,0,0,0,0,0,0,0,0,0,0,0,0h0s0,0,0,0c0,0,0,0,0,0,0,0,0,0,0,0,0,0,0,0,0,0h0s0,0,0,0c0,0,0,0,0,0,0,0,0,0,0,0h0s0,0,0,0c0,0,0,0,0,0h0s0,0,0,0h0s0,0,0,0c0,0,0,0,0,0,0,0,0,0,0,0h0s0,0,0,0h0s0,0,0,0h0s0,0,0,0c0,0,0,0,0,0,0,0,0,0,0,0h0s0,0,0,0c0,0,0,0,0,0h0s0,0,0,0h0s0,0,0,0c0,0,0,0,0,0,0,0,0,0,0,0,0,0,0,0,0,0,0,0,0,0,0,0,0,0,0,0,0,0h0s0,0,0,0c0,0,0,0,0,0,0,0,0,0,0,0h0s0,0,0,0c0,0,0,0,0,0h0s0,0,0,0h0s0,0,0,0h0s0,0,0,0c0,0,0,0,0,0h0s0,0,0,0h0s0,0,0,0h0s0,0,0,0c0,0,0,0,0,0,0,0,0,0,0,0,0,0,0,0,0,0h0s0,0,0,0c0,0,0,0,0,0h0s0,0,0,0c0,0,0,0,0,0,0,0,0,0,0,0,0,0,0,0,0,0h0s0,0,0,0h0s0,0,0,0c0,0,0,0,0,0h0s0,0,0,0h0s0,0,0,0h0s0,0,0,0h0s0,0,0,0c0,0,0,0,0,0s0,0,0,0c0,0,0,0,0,0,0,0,0,0,0,0,0,0,0,0,0,0,0,0,0,0,0,0h0s0,0,0,0h0s0,0,0,0c0,0,0,0,0,0,0,0,0,0,0,0,0,0,0,0,0,0,0,0,0,0,0,0t0,0s0,0,0,0c0,0,0,0,0,0,0,0,0,0,0,0s0,0,0,0c0,0,0,0,0,0h0s0,0,0,0c0,0,0,0,0,0,0,0,0,0,0,0h0s0,0,0,0h0s0,0,0,0c0,0,0,0,0,0h0s0,0,0,0h0s0,0,0,0h0s0,0,0,0c0,0,0,0,0,0,0,0,0,0,0,0,0,0,0,0,0,0,0,0,0,0,0,0h0s0,0,0,0h0s0,0,0,0h0s0,0,0,0h0s0,0,0,0c0,0,0,0,0,0,0,0,0,0,0,0h0s0,0,0,0c0,0,0,0,0,0,0,0,0,0,0,0,0,0,0,0,0,0h0s0,0,0,0c0,0,0,0,0,0,0,0,0,0,0,0h0s0,0,0,0c0,0,0,0,0,0,0,0,0,0,0,0,0,0,0,0,0,0,0,0,0,0,0,0h0s0,0,0,0h0s0,0,0,0c0,0,0,0,0,0h0s0,0,0,0c0,0,0,0,0,0,0,0,0,0,0,0h0s0,0,0,0h0s0,0,0,0c0,0,0,0,0,0,0,0,0,0,0,0h0s0,0,0,0h0s0,0,0,0c0,0,0,0,0,0,0,0,0,0,0,0h0s0,0,0,0c0,0,0,0,0,0,0,0,0,0,0,0,0,0,0,0,0,0,0,0,0,0,0,0,0,0,0,0,0,0,0,0,0,0,0,0h0s0,0,0,0c0,0,0,0,0,0,0,0,0,0,0,0h0s0,0,0,0h0s0,0,0,0c0,0,0,0,0,0,0,0,0,0,0,0l-1.41-1.41s0,0,0,0c0,0,0,0,0,0h0s0,0,0,0,0,0,0,0c0,0,0,0,0,0h0s0,0,0,0h0s0,0,0,0c0,0,0,0,0,0,0,0,0,0,0,0,0,0,0,0,0,0,0,0,0,0,0,0,0,0,0,0,0,0h0s0,0,0,0c0,0,0,0,0,0,0,0,0,0,0,0,0,0,0,0,0,0,0,0,0,0,0,0,0,0,0,0,0,0,0,0,0,0,0,0h0s0,0,0,0c0,0,0,0,0,0,0,0,0,0,0,0,0,0,0,0,0,0,0,0,0,0,0,0h0s0,0,0,0c0,0,0,0,0,0h0s0,0,0,0c0,0,0,0,0,0h0s0,0,0,0c0,0,0,0,0,0,0,0,0,0,0,0,0,0,0,0,0,0,0,0,0,0,0,0h0s0,0,0,0c0,0,0,0,0,0,0,0,0,0,0,0,0,0,0,0,0,0h0s0,0,0,0c0,0,0,0,0,0,0,0,0,0,0,0h0s0,0,0,0c0,0,0,0,0,0h0s0,0,0,0h0s0,0,0,0c0,0,0,0,0,0,0,0,0,0,0,0h0s0,0,0,0h0s0,0,0,0h0s0,0,0,0c0,0,0,0,0,0,0,0,0,0,0,0h0s0,0,0,0c0,0,0,0,0,0h0s0,0,0,0h0s0,0,0,0c0,0,0,0,0,0,0,0,0,0,0,0,0,0,0,0,0,0,0,0,0,0,0,0,0,0,0,0,0,0h0s0,0,0,0c0,0,0,0,0,0,0,0,0,0,0,0h0s0,0,0,0c0,0,0,0,0,0,0,0,0,0,0,0h0s0,0,0,0h0s0,0,0,0h0s0,0,0,0c0,0,0,0,0,0h0s0,0,0,0h0s0,0,0,0h0s0,0,0,0c0,0,0,0,0,0,0,0,0,0,0,0,0,0,0,0,0,0h0s0,0,0,0c0,0,0,0,0,0h0s0,0,0,0c0,0,0,0,0,0,0,0,0,0,0,0,0,0,0,0,0,0h0s0,0,0,0h0s0,0,0,0c0,0,0,0,0,0h0s0,0,0,0h0s0,0,0,0h0s0,0,0,0h0s0,0,0,0c0,0,0,0,0,0s0,0,0,0c0,0,0,0,0,0,0,0,0,0,0,0,0,0,0,0,0,0,0,0,0,0,0,0h0s0,0,0,0h0s0,0,0,0c0,0,0,0,0,0,0,0,0,0,0,0s0,0,0,0c0,0,0,0,0,0,0,0,0,0,0,0,0,0,0,0,0,0,0,0,0,0,0,0,0,0,0,0,0,0,0,0,0,0,0,0,0,0,0,0,0,0h0s0,0,0,0c0,0,0,0,0,0,0,0,0,0,0,0h0s0,0,0,0h0s0,0,0,0c0,0,0,0,0,0h0s0,0,0,0h0s0,0,0,0h0s0,0,0,0c0,0,0,0,0,0,0,0,0,0,0,0,0,0,0,0,0,0,0,0,0,0,0,0h0s0,0,0,0h0s0,0,0,0h0s0,0,0,0h0s0,0,0,0c0,0,0,0,0,0,0,0,0,0,0,0h0s0,0,0,0c0,0,0,0,0,0,0,0,0,0,0,0,0,0,0,0,0,0h0s0,0,0,0c0,0,0,0,0,0,0,0,0,0,0,0h0s0,0,0,0c0,0,0,0,0,0,0,0,0,0,0,0,0,0,0,0,0,0,0,0,0,0,0,0h0s0,0,0,0h0s0,0,0,0c0,0,0,0,0,0h0s0,0,0,0c0,0,0,0,0,0,0,0,0,0,0,0h0s0,0,0,0h0s0,0,0,0c0,0,0,0,0,0,0,0,0,0,0,0h0s0,0,0,0h0s0,0,0,0c0,0,0,0,0,0,0,0,0,0,0,0h0s0,0,0,0c0,0,0,0,0,0,0,0,0,0,0,0,0,0,0,0,0,0,0,0,0,0,0,0s0,0,0,0c0,0,0,0,0,0h0s0,0,0,0c0,0,0,0,0,0,0,0,0,0,0,0h0s0,0,0,0h0s0,0,0,0,0,0,0,0c0,0,0,0,0,0l1.41,1.41Zm.2-.2s.14-.14.23-.26c.08-.11.26-.37.26-.75h-2c0-.14.04-.26.07-.33.03-.07.06-.11.07-.12.01-.01.02-.02,0,0-.01.01-.02.03-.05.05l1.41,1.41Zm.2-.3c.05-.05.08-.07.1-.1.03-.03.05-.05.1-.1l-1.41-1.41c-.05.05-.08.07-.1.1-.02.03-.05.05-.1.1l1.41,1.41Zm.2-.2c.18-.18.26-.36.29-.41.02-.05-.01.03-.09.11l-1.41-1.41c-.18.18-.26.36-.29.41-.02.05.01-.03.09-.11l1.41,1.41Zm.2-.3c.05-.05.08-.07.1-.1s.05-.05.1-.1l-1.41-1.41c-.05.05-.07.07-.1.1-.03.02-.05.05-.1.1l1.41,1.41Zm.2-.2c.18-.18.26-.36.29-.41.02-.05-.01.03-.09.11l-1.41-1.41c-.18.18-.26.36-.29.41-.02.05.01-.03.09-.11l1.41,1.41Zm.2-.3l.1-.1s.05-.05.1-.1l-1.41-1.41c-.05.05-.08.07-.1.1-.03.02-.05.05-.1.1l1.41,1.41Zm.2-.2c.18-.18.26-.36.29-.41.02-.05-.01.03-.09.11l-1.41-1.41c-.18.18-.26.36-.29.41s.01-.03.09-.11l1.41,1.41Zm.2-.3l.1-.1s.05-.05.1-.1l-1.41-1.41c-.05.05-.08.07-.1.1-.03.02-.05.05-.1.1l1.41,1.41Zm.2-.2c.18-.18.26-.36.29-.41.02-.05-.01.03-.09.11l-1.41-1.41c-.18.18-.26.36-.29.41-.02.05.01-.03.09-.11l1.41,1.41Zm.2-.3s.06-.06.09-.1c.04-.04.12-.13.18-.26.07-.15.1-.28.11-.39,0-.08,0-.15,0-.16h-2s0,0,0-.04c0-.07.03-.18.09-.31.05-.11.11-.17.12-.18,0,0,.01-.01-.02.02l1.41,1.41Zm.1-.2s.14-.14.23-.26c.08-.11.26-.37.26-.75h-2c0-.14.04-.26.07-.33.03-.07.06-.11.07-.12.01-.02.02-.02,0,0-.01.01-.02.02-.05.05l1.41,1.41Zm.49-1.01c0,.07,0,.15-.03.24-.02.08-.06.16-.09.22-.04.06-.07.1-.09.13-.02.02-.03.04-.02.03,0,0,.03-.03.06-.06.03-.04.08-.09.12-.17.05-.08.09-.17.12-.27.03-.1.04-.21.04-.3h-2c0-.07,0-.15.03-.24.02-.08.06-.16.09-.22.04-.06.07-.1.09-.13.02-.02.03-.04.02-.03,0,0-.03.03-.06.06-.03.04-.08.09-.12.17-.05.08-.09.17-.12.27-.03.1-.04.21-.04.3h2Zm-.19.51c.05-.05.1-.1.15-.15s.1-.1.15-.15l-1.41-1.41c-.05.05-.1.1-.15.15s-.1.1-.15.15l1.41,1.41Zm-.41-1.01q.71.71.71.71s0,0,0,0c0,0,0,0,0,0,0,0,0,0,0,0,0,0,0,0,0,0,0,0,0,0,0,0,0,0,.01-.01.02-.02.01-.01.02-.03.04-.04.03-.03.07-.08.11-.14.06-.09.22-.34.22-.69h-2c0-.14.03-.24.06-.3.02-.06.05-.1.06-.12.01-.02.03-.04.04-.05,0,0,.01-.01.02-.02,0,0,0,0,0,0,0,0,0,0,0,0,0,0,0,0,0,0,0,0,0,0,0,0,0,0,0,0,0,0,0,0,0,0,0,0t.71.71Zm.99.25s.04-.07.09-.14c.05-.07.13-.2.21-.36l-1.79-.89s-.04.07-.09.14c-.05.07-.13.2-.21.36l1.79.89Zm.11-.24c.22-.22.39-.47.52-.67.06-.1.12-.2.17-.28.05-.09.09-.15.13-.21l-1.66-1.11c-.06.09-.12.19-.17.27-.05.09-.1.16-.15.24-.1.15-.18.26-.25.33l1.41,1.41Zm.82-1.14c2.02-2.93,3.9-5.43,6.08-6.7l-1.01-1.73c-2.62,1.53-4.74,4.43-6.72,7.3l1.65,1.14Zm6.28-6.86c-.08.08-.16.11-.11.09.05-.03.23-.11.41-.29l-1.41-1.41c.08-.08.16-.11.11-.09-.05.03-.23.11-.41.29l1.41,1.41Zm.04-.01c.19-.1.34-.17.57-.25l-.63-1.9c-.37.12-.62.25-.83.35l.89,1.79Zm.53-.23c.73-.21,1.29-.36,1.83-.36v-2c-.86,0-1.7.25-2.37.44l.55,1.92Zm1.83-.36c1.84,0,3.42.89,4.99,2.43,1.58,1.56,3.02,3.67,4.59,5.94l1.65-1.13c-1.53-2.22-3.09-4.51-4.83-6.23-1.76-1.74-3.82-3-6.39-3v2Zm9.58,8.37c1.58,2.28,3.27,4.71,5.16,6.57,1.9,1.86,4.14,3.26,6.86,3.26v-2c-1.98,0-3.74-1-5.46-2.69-1.73-1.7-3.3-3.96-4.92-6.28l-1.64,1.14Zm12.02,9.83h17.3v-2h-17.3v2Zm17.3,0h.7v-2h-.7v2Zm.7,0h.2v-2h-.2v2Zm.2,0h.5v-2h-.5v2Zm.5,0h.3v-2h-.3v2Zm.3,0s.2,0,.36-.03c.15-.02.47-.1.74-.37l-1.41-1.41c.09-.09.18-.14.24-.16.05-.02.09-.03.11-.03.02,0,.02,0-.04,0v2Zm.4-.1h.3v-2h-.3v2Zm.3,0c.09,0,.17-.01.22-.02.05-.01.1-.02.14-.03.07-.02.13-.04.16-.05.02,0,.03-.01.04-.01.01,0,.01,0,.01,0,0,0-.01,0-.04,0-.02,0-.07.01-.14.01v-2c-.09,0-.17.01-.22.02-.05,0-.1.02-.14.03-.07.02-.13.04-.16.05-.02,0-.03.01-.04.02-.01,0-.01,0-.01,0,0,0,.01,0,.04,0,.02,0,.07-.01.13-.01v2Zm.4-.1c.11,0,.6.02,1.01-.39l-1.41-1.41s.08-.07.14-.11c.06-.03.12-.06.17-.07.09-.02.16-.02.09-.02v2Zm.3-.1c.09,0,.17-.01.22-.02.05-.01.1-.02.14-.03.07-.02.13-.04.16-.05.02,0,.03-.01.04-.01.01,0,.01,0,.01,0,0,0-.01,0-.04,0-.02,0-.07.01-.13.01v-2c-.09,0-.17.01-.22.02-.05.01-.1.02-.14.03-.07.02-.13.04-.16.05-.02,0-.03.01-.04.01-.01,0-.01,0-.01,0,0,0,.01,0,.04,0,.02,0,.07-.01.14-.01v2Zm.4-.1s.08,0,.14,0c.06,0,.18-.02.31-.06.14-.05.35-.15.52-.36.17-.22.23-.47.23-.67h-2c0-.15.04-.36.19-.56.15-.19.32-.27.43-.31.1-.03.17-.04.19-.04.02,0,.03,0,0,0v2Zm.2-.1c.09,0,.17-.01.22-.02.05-.01.1-.02.14-.03.07-.02.13-.04.16-.05.02,0,.03-.01.04-.01.01,0,.01,0,.01,0,0,0-.01,0-.04,0-.02,0-.07.01-.14.01v-2c-.09,0-.17.01-.22.02-.05.01-.1.02-.14.03-.07.02-.13.04-.16.05-.02,0-.03.01-.04.01-.01,0-.01,0-.01,0,0,0,.01,0,.04,0,.02,0,.07-.01.14-.01v2Zm.4-.1s.08,0,.16,0c.1-.01.24-.04.39-.11.13-.07.22-.14.26-.18.04-.04.08-.08.1-.09l-1.41-1.41s-.03.03-.02.02c.01-.01.08-.07.18-.12.12-.06.23-.08.31-.09.04,0,.08,0,.04,0v2Zm.91-.39c-.09.09-.18.14-.22.15-.03.01-.04.01,0,0,0,0,.02,0,.03,0,.01,0,.03,0,.04-.01.03,0,.06-.02.1-.03.08-.03.18-.06.29-.12l-.89-1.79s.01,0-.11.03c-.05.01-.14.04-.25.08-.1.05-.26.13-.4.27l1.41,1.41Zm-.21.09h.1v-2h-.1v2Zm.55-.11c.09-.05.22-.11.34-.18.1-.06.28-.16.42-.31l-1.41-1.41s.05-.04.04-.04c0,0-.02.01-.05.03-.06.03-.13.07-.24.12l.89,1.79Zm.76-.49l.1-.1-1.41-1.41-.1.1,1.41,1.41Zm.1-.1s-.08.07-.12.1c-.04.02-.06.03-.05.03,0,0,.01,0,.04-.01.02,0,.04-.02.07-.03.06-.02.13-.05.21-.09l-.89-1.79c-.05.03-.05.02-.16.07-.12.05-.31.13-.5.32l1.41,1.41Zm-.31.09c.1,0,.2-.01.3-.04.1-.03.19-.07.27-.12.07-.04.13-.09.17-.12.03-.03.06-.06.07-.06,0-.01,0,0-.03.03-.02.02-.07.06-.13.09-.06.04-.13.07-.22.09-.08.02-.16.03-.24.03v-2c-.1,0-.2.01-.3.04-.1.03-.19.07-.27.12-.07.04-.13.09-.17.12-.03.03-.06.06-.06.06-.01.01,0,0,.03-.03.02-.02.07-.06.13-.09.06-.04.13-.07.22-.09.08-.02.16-.03.24-.03v2Zm.91-.39c-.08.08-.16.11-.11.09.05-.03.23-.11.41-.29l-1.41-1.41c.08-.08.16-.11.11-.09-.05.03-.23.11-.41.29l1.41,1.41Zm-.41.09c.1,0,.2-.01.3-.04.1-.03.19-.07.27-.12.07-.05.13-.09.17-.12.03-.03.06-.06.07-.06,0,0,0,0-.03.03-.02.02-.07.06-.13.09-.06.04-.13.07-.22.09-.08.02-.16.03-.24.03v-2c-.1,0-.2.01-.3.04-.1.03-.19.07-.27.12-.07.04-.13.09-.17.12-.03.03-.06.06-.06.06-.01.01,0,0,.03-.02.02-.02.07-.06.13-.09.06-.04.13-.07.22-.09.08-.02.16-.03.24-.03v2Zm.91-.39c-.08.08-.16.11-.11.09.05-.03.23-.11.41-.29l-1.41-1.41c.08-.08.16-.11.11-.09-.05.03-.23.11-.41.29l1.41,1.41Zm-.41.09c.1,0,.2-.01.3-.04.1-.03.19-.07.27-.12.07-.04.13-.09.17-.12.03-.03.06-.06.07-.06,0-.01,0,0-.03.03-.02.02-.07.06-.13.09-.06.04-.13.07-.22.09-.08.02-.16.03-.24.03v-2c-.1,0-.2.01-.3.04-.1.03-.19.07-.27.12-.07.04-.13.09-.17.12-.03.03-.06.06-.06.06-.01.01,0,0,.03-.03.02-.02.07-.06.13-.09.06-.04.13-.07.22-.09.08-.02.16-.03.24-.03v2Zm.91-.39c-.08.08-.16.11-.11.09.05-.02.23-.11.41-.29l-1.41-1.41c.08-.08.16-.11.11-.09-.05.02-.23.11-.41.29l1.41,1.41Zm-.41.09c.1,0,.2-.01.3-.04.1-.03.19-.07.27-.12.07-.04.13-.09.17-.12.03-.03.06-.06.06-.06,0-.01,0,0-.03.02-.02.02-.07.06-.13.09-.06.04-.13.07-.22.09-.08.02-.16.03-.24.03v-2c-.1,0-.2.01-.3.04-.1.03-.19.07-.27.12-.07.04-.13.09-.17.12-.03.03-.06.06-.06.06-.01.01,0,0,.03-.02.02-.02.07-.06.13-.09.06-.04.13-.07.22-.09.08-.02.16-.03.24-.03v2Zm.91-.39s.04-.04.05-.05c.01-.01,0,0,0,0-.01.01-.06.04-.12.07-.07.03-.18.07-.33.07v-2c-.38,0-.64.18-.75.26-.12.09-.22.19-.26.23l1.41,1.41Zm-.41-.91l.71.71h0s0,0,0,0c0,0,0,0,0,0,0,0,0,0,0,0,0,0,0,0-.01.01,0,0-.01.01-.02.02-.01,0-.03.02-.05.04-.02.01-.06.04-.12.06-.06.02-.16.06-.3.06v-2c-.35,0-.61.16-.69.22-.06.04-.11.08-.14.11-.02.01-.03.03-.04.04,0,0-.01.01-.02.01,0,0,0,0,0,0h0s0,0,0,0h0s0,0,0,0l.71.71Zm.91.61h0s0,0,0,0h0s0,0,0,0h0s0,0,0,0h0s0,0,0,0h0s0,0,0,0h0s0,0,0,0h0s0,0,0,0h0s0,0,0,0h0s0,0,0,0h0s0,0,0,0h0s0,0,0,0h0s0,0,0,0h0s0,0,0,0h0s0,0,0,0h0s0,0,0,0h0s0,0,0,0h0s0,0,0,0h0s0,0,0,0h0s0,0,0,0h0s0,0,0,0h0s0,0,0,0h0s0,0,0,0h0s0,0,0,0h0s0,0,0,0h0s0,0,0,0h0s0,0,0,0h0s0,0,0,0h0s0,0,0,0h0s0,0,0,0h0s0,0,0,0h0s0,0,0,0h0s0,0,0,0h0s0,0,0,0h0s0,0,0,0h0s0,0,0,0h0s0,0,0,0h0s0,0,0,0h0s0,0,0,0h0s0,0,0,0h0s0,0,0,0h0s0,0,0,0h0s0,0,0,0h0s0,0,0,0h0s0,0,0,0h0s0,0,0,0h0s0,0,0,0h0s0,0,0,0h0s0,0,0,0h0s0,0,0,0h0s0,0,0,0h0s0,0,0,0h0s0,0,0,0h0s0,0,0,0h0s0,0,0,0h0s0,0,0,0h0s0,0,0,0h0s0,0,0,0h0s0,0,0,0h0s0,0,0,0h0s0,0,0,0h0s0,0,0,0h0s0,0,0,0h0s0,0,0,0h0s0,0,0,0h0s0,0,0,0h0s0,0,0,0h0s0,0,0,0h0s0,0,0,0h0s0,0,0,0h0s0,0,0,0h0s0,0,0,0h0s0,0,0,0h0s0,0,0,0h0s0,0,0,0h0s0,0,0,0h0s0,0,0,0h0s0,0,0,0h0s0,0,0,0h0s0,0,0,0h0s0,0,0,0h0s0,0,0,0h0s0,0,0,0h0s0,0,0,0h0s0,0,0,0h0s0,0,0,0h0s0,0,0,0h0s0,0,0,0h0s0,0,0,0h0s0,0,0,0h0s0,0,0,0h0s0,0,0,0h0s0,0,0,0h0s0,0,0,0h0s0,0,0,0h0s0,0,0,0h0s0,0,0,0h0s0,0,0,0h0s0,0,0,0h0s0,0,0,0h0s0,0,0,0h0s0,0,0,0h0s0,0,0,0h0s0,0,0,0h0s0,0,0,0h0s0,0,0,0h0s0,0,0,0h0s0,0,0,0h0s0,0,0,0h0s0,0,0,0h0s0,0,0,0h0s0,0,0,0h0s0,0,0,0h0s0,0,0,0h0s0,0,0,0h0s0,0,0,0h0s0,0,0,0h0s0,0,0,0h0s0,0,0,0h0s0,0,0,0h0s0,0,0,0h0s0,0,0,0h0s0,0,0,0h0s0,0,0,0h0s0,0,0,0h0s0,0,0,0h0s0,0,0,0h0s0,0,0,0h0s0,0,0,0h0s0,0,0,0h0s0,0,0,0h0s0,0,0,0h0s0,0,0,0h0s0,0,0,0h0s0,0,0,0h0s0,0,0,0h0s0,0,0,0h0s0,0,0,0h0s0,0,0,0h0s0,0,0,0h0s0,0,0,0h0s0,0,0,0h0s0,0,0,0h0s0,0,0,0h0s0,0,0,0h0s0,0,0,0h0s0,0,0,0h0s0,0,0,0h0s0,0,0,0h0s0,0,0,0h0s0,0,0,0h0s0,0,0,0h0s0,0,0,0h0s0,0,0,0h0s0,0,0,0h0s0,0,0,0h0s0,0,0,0h0s0,0,0,0h0s0,0,0,0h0s0,0,0,0h0s0,0,0,0h0s0,0,0,0h0s0,0,0,0h0s0,0,0,0h0s0,0,0,0h0s0,0,0,0h0s0,0,0,0h0s0,0,0,0h0s0,0,0,0h0s0,0,0,0h0s0,0,0,0h0s0,0,0,0h0s0,0,0,0h0s0,0,0,0h0s0,0,0,0h0s0,0,0,0h0s0,0,0,0h0s0,0,0,0h0s0,0,0,0h0s0,0,0,0h0s0,0,0,0h0s0,0,0,0h0s0,0,0,0h0s0,0,0,0h0s0,0,0,0h0s0,0,0,0h0s0,0,0,0h0s0,0,0,0h0s0,0,0,0h0s0,0,0,0h0s0,0,0,0h0s0,0,0,0h0s0,0,0,0h0s0,0,0,0h0s0,0,0,0h0s0,0,0,0h0s0,0,0,0h0s0,0,0,0h0s0,0,0,0h0s0,0,0,0h0s0,0,0,0h0s0,0,0,0h0s0,0,0,0h0s0,0,0,0h0s0,0,0,0h0s0,0,0,0h0s0,0,0,0h0s0,0,0,0h0s0,0,0,0h0s0,0,0,0h0s0,0,0,0h0s0,0,0,0h0s-1.41-1.42-1.41-1.42h0s0,0,0,0h0s0,0,0,0h0s0,0,0,0h0s0,0,0,0h0s0,0,0,0h0s0,0,0,0h0s0,0,0,0h0s0,0,0,0h0s0,0,0,0h0s0,0,0,0h0s0,0,0,0h0s0,0,0,0h0s0,0,0,0h0s0,0,0,0h0s0,0,0,0h0s0,0,0,0h0s0,0,0,0h0s0,0,0,0h0s0,0,0,0h0s0,0,0,0h0s0,0,0,0h0s0,0,0,0h0s0,0,0,0h0s0,0,0,0h0s0,0,0,0h0s0,0,0,0h0s0,0,0,0h0s0,0,0,0h0s0,0,0,0h0s0,0,0,0h0s0,0,0,0h0s0,0,0,0h0s0,0,0,0h0s0,0,0,0h0s0,0,0,0h0s0,0,0,0h0s0,0,0,0h0s0,0,0,0h0s0,0,0,0h0s0,0,0,0h0s0,0,0,0h0s0,0,0,0h0s0,0,0,0h0s0,0,0,0h0s0,0,0,0h0s0,0,0,0h0s0,0,0,0h0s0,0,0,0h0s0,0,0,0h0s0,0,0,0h0s0,0,0,0h0s0,0,0,0h0s0,0,0,0h0s0,0,0,0h0s0,0,0,0h0s0,0,0,0h0s0,0,0,0h0s0,0,0,0h0s0,0,0,0h0s0,0,0,0h0s0,0,0,0h0s0,0,0,0h0s0,0,0,0h0s0,0,0,0h0s0,0,0,0h0s0,0,0,0h0s0,0,0,0h0s0,0,0,0h0s0,0,0,0h0s0,0,0,0h0s0,0,0,0h0s0,0,0,0h0s0,0,0,0h0s0,0,0,0h0s0,0,0,0h0s0,0,0,0h0s0,0,0,0h0s0,0,0,0h0s0,0,0,0h0s0,0,0,0h0s0,0,0,0h0s0,0,0,0h0s0,0,0,0h0s0,0,0,0h0s0,0,0,0h0s0,0,0,0h0s0,0,0,0h0s0,0,0,0h0s0,0,0,0h0s0,0,0,0h0s0,0,0,0h0s0,0,0,0h0s0,0,0,0h0s0,0,0,0h0s0,0,0,0h0s0,0,0,0h0s0,0,0,0h0s0,0,0,0h0s0,0,0,0h0s0,0,0,0h0s0,0,0,0h0s0,0,0,0h0s0,0,0,0h0s0,0,0,0h0s0,0,0,0h0s0,0,0,0h0s0,0,0,0h0s0,0,0,0h0s0,0,0,0h0s0,0,0,0h0s0,0,0,0h0s0,0,0,0h0s0,0,0,0h0s0,0,0,0h0s0,0,0,0h0s0,0,0,0h0s0,0,0,0h0s0,0,0,0h0s0,0,0,0h0s0,0,0,0h0s0,0,0,0h0s0,0,0,0h0s0,0,0,0h0s0,0,0,0h0s0,0,0,0h0s0,0,0,0h0s0,0,0,0h0s0,0,0,0h0s0,0,0,0h0s0,0,0,0h0s0,0,0,0h0s0,0,0,0h0s0,0,0,0h0s0,0,0,0h0s0,0,0,0h0s0,0,0,0h0s0,0,0,0h0s0,0,0,0h0s0,0,0,0h0s0,0,0,0h0s0,0,0,0h0s0,0,0,0h0s0,0,0,0h0s0,0,0,0h0s0,0,0,0h0s0,0,0,0h0s0,0,0,0h0s0,0,0,0h0s0,0,0,0h0s0,0,0,0h0s0,0,0,0h0s0,0,0,0h0s0,0,0,0h0s0,0,0,0h0s0,0,0,0h0s0,0,0,0h0s0,0,0,0h0s0,0,0,0h0s0,0,0,0h0s0,0,0,0h0s0,0,0,0h0s0,0,0,0h0s0,0,0,0h0s0,0,0,0h0s0,0,0,0h0s0,0,0,0h0s0,0,0,0h0s0,0,0,0h0s0,0,0,0h0s0,0,0,0h0s0,0,0,0h0s0,0,0,0h0s0,0,0,0h0s0,0,0,0h0s0,0,0,0h0s0,0,0,0h0s0,0,0,0h0s0,0,0,0h0s0,0,0,0h0s0,0,0,0h0s0,0,0,0h0s0,0,0,0h0s0,0,0,0h0s0,0,0,0h0s0,0,0,0h0s0,0,0,0h0s0,0,0,0h0s0,0,0,0h0s0,0,0,0h0s0,0,0,0h0s0,0,0,0h0s0,0,0,0h0s0,0,0,0h0s1.41,1.42,1.41,1.42Zm.3-.3l.1-.1-1.41-1.41-.1.1,1.41,1.41Zm.16-1.44c-11.08-13.42-29.32-21.5-45.37-28.58l-.81,1.83c16.16,7.12,33.91,15.04,44.63,28.02l1.54-1.27Zm-45.37-28.58c-8.82-3.91-17.67-7.83-24.32-12-3.32-2.08-6.04-4.19-7.92-6.35-1.88-2.16-2.86-4.29-2.86-6.44h-2c0,2.8,1.28,5.38,3.35,7.75,2.06,2.37,4.97,4.6,8.37,6.73,6.8,4.26,15.8,8.24,24.58,12.13l.81-1.83Zm-35.11-24.79c0-4.15,3.35-7.72,8.85-10.31,5.44-2.56,12.67-3.99,19.65-3.99v-2c-7.22,0-14.74,1.47-20.5,4.18-5.7,2.68-10,6.76-10,12.12h2Zm28.5-14.3c8.28,0,15.87,1.88,20.86,5.04l1.07-1.69c-5.41-3.43-13.41-5.36-21.94-5.36v2Zm20.83,5.02c4.06,2.83,5.1,5.76,5.28,8.06l1.99-.15c-.22-2.9-1.58-6.37-6.12-9.54l-1.14,1.64Z"/>
  </g>
  <path class="cls-3" d="m123.18,158.62l.68-.82h-17.06c-2.76,0-5.06-1.4-7.17-3.57-2.1-2.17-3.93-5.05-5.78-7.94l-.02-.03c-.12-.23-.32-.53-.54-.76-.14-.21-.27-.43-.41-.64-.93-1.44-1.82-2.82-2.79-4.05-2.42-3.23-4.65-4.8-7-4.8-2.15,0-3.99,1.19-5.66,2.87-1.66,1.69-3.21,3.95-4.76,6.25l-.02.03v.03s-.1.17-.1.17c-2.05,3-4.19,6.11-6.78,8.49-2.59,2.37-5.6,3.97-9.39,3.97h-20.9c-6.13,0-9.49-4.19-12.61-8.11h0,0c-.06-.08-.12-.15-.18-.23-1.22-1.51-2.4-2.96-3.67-4.04-1.34-1.15-2.83-1.92-4.64-1.92h-.91c-.05,0-.16,0-.28.02-.06.01-.16.03-.26.08-.09,0-.25.01-.42.1-.08,0-.14.03-.19.04-.05.02-.09.04-.12.05h-.03c-.11,0-.19.03-.25.05-.05.02-.09.04-.12.05h-.63l.22.66c1.42,4.25,3.44,8.2,6.17,11.84,3.44,4.75,7.99,8.99,13.33,12.42,10.79,6.96,24.99,10.78,39.97,10.78,22.11.2,41.07-7.44,52.29-20.98Z"/>
  <path class="cls-10" d="m123.5,103.6l-8.6,8.9"/>
  <path class="cls-4" d="m52.3,112.7l8.6-8.8"/>
  <path class="cls-8" d="m11.9,144.5l-8.6,8.8"/>
  <path class="cls-13" d="m122.8,158.3l-7.6,8.8"/>
  <path class="cls-2" d="m70.9,179.3l-10,8.9"/>
  <path class="cls-14" d="m84.2,136.6l-8.6,8.8"/>
  <path class="cls-12" d="m67.4,148.9l9.7-8.9"/>
  <path class="cls-9" d="m91.1,14.5l8.6-8.8"/>
  <path class="cls-5" d="m46.3,57.1l-8.6,8.8"/>
  <path class="cls-11" d="m16,72.8l-8.6,8.8"/>
  <path class="cls-15" d="m133.1,48.3l-8.6,8.8"/>
  <path class="cls-6" d="m99.7,48.3l-8.6,8.8"/>
</svg>