<?xml version="1.0" encoding="UTF-8"?>
<svg xmlns="http://www.w3.org/2000/svg" xmlns:xlink="http://www.w3.org/1999/xlink" viewBox="0 0 750 500">
  <defs>
    <style>
      .cls-1 {
        fill: url(#linear-gradient-2);
      }

      .cls-2 {
        opacity: .15;
      }

      .cls-2, .cls-3 {
        fill: #272763;
      }

      .cls-4 {
        fill: #53307d;
      }

      .cls-5 {
        fill: url(#linear-gradient-6);
      }

      .cls-6 {
        isolation: isolate;
      }

      .cls-7 {
        fill: #eee8c1;
      }

      .cls-7, .cls-8 {
        opacity: .32;
      }

      .cls-9 {
        fill: url(#radial-gradient-3);
        opacity: .47;
      }

      .cls-9, .cls-10, .cls-11, .cls-8 {
        mix-blend-mode: overlay;
      }

      .cls-12 {
        fill: url(#linear-gradient-5);
      }

      .cls-13 {
        clip-path: url(#clippath);
      }

      .cls-10 {
        fill: url(#radial-gradient-2);
        opacity: .9;
      }

      .cls-14 {
        fill: none;
      }

      .cls-15 {
        fill: url(#linear-gradient-7);
      }

      .cls-3 {
        opacity: .33;
      }

      .cls-16 {
        fill: url(#linear-gradient-9);
      }

      .cls-17 {
        fill: url(#linear-gradient-3);
      }

      .cls-18 {
        fill: url(#linear-gradient);
      }

      .cls-19 {
        fill: url(#radial-gradient);
        stroke: #000;
        stroke-miterlimit: 10;
        stroke-width: .5px;
      }

      .cls-20 {
        fill: url(#linear-gradient-4);
      }

      .cls-21 {
        fill: url(#linear-gradient-8);
      }

      .cls-11 {
        opacity: .1;
      }

      .cls-11, .cls-8 {
        fill: #fff;
      }
    </style>
    <linearGradient id="linear-gradient" x1="375" y1="212.59" x2="375" y2="-27.4" gradientUnits="userSpaceOnUse">
      <stop offset="0" stop-color="#c3cfbb"/>
      <stop offset=".1" stop-color="#bac6ba"/>
      <stop offset=".26" stop-color="#a3adb7"/>
      <stop offset=".46" stop-color="#7e85b2"/>
      <stop offset=".7" stop-color="#4a4eac"/>
      <stop offset=".97" stop-color="#0809a5"/>
      <stop offset="1" stop-color="#0000a4"/>
    </linearGradient>
    <clipPath id="clippath">
      <rect class="cls-14" x="0" y="0" width="750" height="500" transform="translate(750 500) rotate(-180)"/>
    </clipPath>
    <linearGradient id="linear-gradient-2" x1="289.17" y1="329.44" x2="289.17" y2="183.7" gradientTransform="translate(750) rotate(-180) scale(1 -1)" gradientUnits="userSpaceOnUse">
      <stop offset="0" stop-color="#c3cfbb"/>
      <stop offset=".18" stop-color="#bec6bf"/>
      <stop offset=".46" stop-color="#b3adca"/>
      <stop offset=".82" stop-color="#a286dd"/>
      <stop offset="1" stop-color="#9870e8"/>
    </linearGradient>
    <linearGradient id="linear-gradient-3" x1="434.67" y1="344.33" x2="434.67" y2="198.74" gradientTransform="translate(750) rotate(-180) scale(1 -1)" gradientUnits="userSpaceOnUse">
      <stop offset=".03" stop-color="#d4bfe0"/>
      <stop offset=".32" stop-color="#b9a2e2"/>
      <stop offset=".92" stop-color="#7758e7"/>
      <stop offset="1" stop-color="#6f4fe8"/>
    </linearGradient>
    <radialGradient id="radial-gradient" cx="435.85" cy="203.49" fx="435.85" fy="203.49" r="180.99" gradientUnits="userSpaceOnUse">
      <stop offset=".05" stop-color="#aeeebf"/>
      <stop offset="1" stop-color="#aeeebf" stop-opacity="0"/>
    </radialGradient>
    <linearGradient id="linear-gradient-4" x1="364.61" y1="423.41" x2="364.61" y2="282.34" gradientTransform="translate(750) rotate(-180) scale(1 -1)" gradientUnits="userSpaceOnUse">
      <stop offset="0" stop-color="#aa94d0"/>
      <stop offset=".18" stop-color="#947ec8"/>
      <stop offset=".53" stop-color="#715aba"/>
      <stop offset=".82" stop-color="#5b44b2"/>
      <stop offset="1" stop-color="#543cb0"/>
    </linearGradient>
    <linearGradient id="linear-gradient-5" x1="366.5" y1="472" x2="366.5" y2="239" gradientTransform="translate(750) rotate(-180) scale(1 -1)" gradientUnits="userSpaceOnUse">
      <stop offset="0" stop-color="#846dc2"/>
      <stop offset=".09" stop-color="#7660b8"/>
      <stop offset=".32" stop-color="#5a44a4"/>
      <stop offset=".55" stop-color="#463095"/>
      <stop offset=".78" stop-color="#3a248c"/>
      <stop offset="1" stop-color="#36208a"/>
    </linearGradient>
    <radialGradient id="radial-gradient-2" cx="696" cy="337.77" fx="696" fy="337.77" r="320.75" gradientTransform="translate(750) rotate(-180) scale(1 -1)" xlink:href="#radial-gradient"/>
    <radialGradient id="radial-gradient-3" cx="568.17" cy="26.61" fx="568.17" fy="26.61" r="533.29" gradientTransform="translate(750) rotate(-180) scale(1 -1)" xlink:href="#radial-gradient"/>
    <linearGradient id="linear-gradient-6" x1="298.67" y1="428" x2="298.67" y2="306" gradientTransform="translate(750) rotate(-180) scale(1 -1)" gradientUnits="userSpaceOnUse">
      <stop offset="0" stop-color="#5741a2"/>
      <stop offset=".62" stop-color="#372579"/>
      <stop offset="1" stop-color="#281866"/>
    </linearGradient>
    <linearGradient id="linear-gradient-7" x1="382.43" y1="496" x2="382.43" y2="307.29" gradientTransform="translate(750) rotate(-180) scale(1 -1)" gradientUnits="userSpaceOnUse">
      <stop offset=".2" stop-color="#3f2d7f"/>
      <stop offset=".4" stop-color="#342470"/>
      <stop offset=".77" stop-color="#25175a"/>
      <stop offset="1" stop-color="#201352"/>
    </linearGradient>
    <linearGradient id="linear-gradient-8" x1="162.1" y1="583" x2="162.1" y2="471.12" gradientTransform="translate(750) rotate(-180) scale(1 -1)" gradientUnits="userSpaceOnUse">
      <stop offset=".34" stop-color="#3f2d7f"/>
      <stop offset=".5" stop-color="#342470"/>
      <stop offset=".81" stop-color="#25175a"/>
      <stop offset="1" stop-color="#201352"/>
    </linearGradient>
    <linearGradient id="linear-gradient-9" x1="510.12" y1="575" x2="510.12" y2="453.74" gradientTransform="translate(750) rotate(-180) scale(1 -1)" gradientUnits="userSpaceOnUse">
      <stop offset=".05" stop-color="#3f2d7f"/>
      <stop offset=".44" stop-color="#2b1d5e"/>
      <stop offset=".78" stop-color="#1d1248"/>
      <stop offset="1" stop-color="#190f40"/>
    </linearGradient>
  </defs>
  <g class="cls-6">
    <g id="BACKGROUND">
      <rect class="cls-18" width="750" height="500"/>
    </g>
    <g id="OBJECTS">
      <g class="cls-13">
        <path class="cls-1" d="m756.47,239l-37.47-9h-32s-48.5-14-48.5-14l-89,31-36,3s-73-38.33-80-40.17c-7-1.83-43-4.33-43-4.33l-62.5,10.5-169.33,81.75v40.02s604.33,0,604.33,0l-6.53-98.77Z"/>
        <g>
          <polygon class="cls-17" points="472 282.92 406.49 236.33 359.5 216 313.16 164.33 303.88 155 288.67 155 268 167.67 254 167 246 177.67 194.67 218.96 158.67 330.99 472 330.99 472 282.92"/>
          <polygon class="cls-2" points="406.49 236.33 352 265.5 270 330.99 254 330.99 315.33 258.33 324.5 239 343 234 359.5 216 406.49 236.33"/>
          <polygon class="cls-2" points="288.67 155 269 189.5 239.88 200.33 193.5 239.5 177.14 273.49 194.67 218.96 246 177.67 254 167 268 167.67 288.67 155"/>
        </g>
        <g>
          <line class="cls-19" x1="187.71" y1="140.71" x2="683.99" y2="266.27"/>
          <polygon class="cls-20" points="-5.27 210.25 26.06 200.75 41.39 205.5 80.73 217.41 154.73 270.08 260.73 286.08 327.66 280.08 358.5 272.75 375.73 276.08 438.79 258.75 460.73 247.41 490.73 248.08 504.73 258.75 524.06 259.41 592.73 278.08 677.39 290.75 776.06 310.22 776.06 395.58 -5.27 395.58 -5.27 210.25"/>
          <polygon class="cls-8" points="460.73 247.41 487.39 252.75 499.06 267.08 528.39 265.41 592.73 278.08 524.06 259.41 504.73 258.75 490.73 248.08 460.73 247.41"/>
          <polygon class="cls-2" points="401.06 304.08 437.39 326.41 508.73 334.41 562.31 395.58 225.67 395.58 258.56 285.75 260.73 286.08 327.66 280.08 358.5 272.75 375.73 276.08 438.79 258.75 401.06 290.75 401.06 304.08"/>
        </g>
        <g>
          <path class="cls-12" d="m784,338s-43-69-61-72-39,0-39,0c0,0-74.2,65-96.1,72-21.9,7-114.9,8-114.9,8l-67.93-14-51.07-17-13.82-19-16.79-5.67h-8.35s-16.04-27.33-20.04-40.33c-4-13-13-22-13-22,0,0-1-16-7-17.5s-16.5,0-16.5,0l-10.5,1.5-29-35s-11.5-17-17-19.5-14.96-17.45-14.96-17.45l-23.04-.05-39,15s-15.5,31.5-27,37.5-24,18-24,18c0,0-17,36.5-25,43-8,6.5-22,17.5-22,17.5l-44,47v194s801,0,801,0v-174Z"/>
          <path class="cls-3" d="m225.5,296.5l-24.07,36.76-9.43,22.74-47-12s33.5-50.5,45.5-60.75,32-19.75,32-19.75l25.5-51.5,10.5-1.5s10.5-1.5,16.5,0c0,0-20,29-23.5,46.5s-26,39.5-26,39.5Z"/>
          <path class="cls-3" d="m93.5,225l-21,61-4.5-16.5-37.5,36-47.5,25.49v-12.99s44-47,44-47c0,0,14-11,22-17.5,8-6.5,25-43,25-43,0,0,12.5-12,24-18s27-37.5,27-37.5l-17,46-14.5,24Z"/>
          <path class="cls-8" d="m784,374.85l-27.53-31.35-22.97-33.69-23.57-45.05h0c4.31.16,8.77.53,13.07,1.24,18,3,61,72,61,72v36.85Z"/>
        </g>
        <circle class="cls-10" cx="54" cy="337.77" r="320.75"/>
        <circle class="cls-9" cx="181.83" cy="26.61" r="533.29"/>
        <g>
          <path class="cls-5" d="m135.33,464.35s96.83-33.01,110.42-37.85c13.58-4.83,57.91-33.5,67.41-37.5s35.74-4,35.74-4l11.35-9.33,21.74-5.33,8.56-3.33,21.81-20.67s21.22-1.33,33.76-4c12.54-2.67,34.54-6.67,34.54-6.67l45.33-20.67,54.67-20.67,38.67-4,15.33,14.67s10.67,32.67,20,38c9.33,5.33,32,17,32,17l24.67,17.34h20.67s35.33,33.56,35.33,33.56v89.1H135.33v-35.65Z"/>
          <path class="cls-11" d="m676,360l-36-15.67-28.67-34.53-30.67-15.47,38.67-4,15.33,14.67s10.67,32.67,20,38c9.33,5.33,32,17,32,17l24.67,17.34-11.33.33-24-17.67Z"/>
        </g>
        <path class="cls-15" d="m756.47,480.67s-165.13-48.33-166.13-49c-1-.67-10,.33-13,0-3-.33-27.33-12-28.67-12.67-1.33-.67-9,.33-15,5-6,4.67-8.33-2-9.33-1s-10.33,11.33-11,10c-.67-1.33-5.33.67-7.33,0s-16.33-9.33-23.67-13c-7.33-3.67-13.33-2.33-26.67-4-13.33-1.67-33-8.33-36.33-9.33-3.33-1-15.33,4.67-25.46,6.33-10.13,1.67-13.87-3-18.87-2.67-11,.73-25-4-28.85-5.33-3.85-1.33-42.28-11.33-42.28-11.33l-108.54-64-22.67-19.86s-21.33,5.19-31.33,1.19c-10-4-24.67,3.33-24.67,3.33,0,0-29.33,7.33-42,11.33-12.67,4-33.33,21.33-33.33,21.33l-26.67,13H-21.33s0,152,0,152h777.8s0-31.33,0-31.33Z"/>
        <g>
          <path class="cls-7" d="m165.33-10.33s30.67,18.67,44.67,21.33,8,3.33,20,4.67c12,1.33,12.67-2.67,26.67,0,14,2.67,24,2,27.33,8.67,3.33,6.67-21.33,2.67-20,8.67,1.33,6,19.33,4,24.67,7.33,5.33,3.33-18.67,3.33,17.33,7.33s28.67-8,51.33,6.67c22.67,14.67,22,12,44.67,15.33,22.67,3.33,42,4.67,28.67,13.33-13.33,8.67-71.33,7.33-75.33,12s33.33,6.67,58,6c24.67-.67,39.33-8.42,70,.13,30.67,8.54,33.33,14.54,64,14.54s38-1.33,90,4c52,5.33,46.32-.67,80.67,0,34.34.67,38.47-.67,38.47-.67V-7s-591.13-3.33-591.13-3.33Z"/>
          <path class="cls-7" d="m772,79s-44.63-4-62.07-3c-17.43,1-36.93,7-58.43,9s-66.67,2.5-70.83,9c-4.17,6.5-10.67,11-26.67,13s-15,10.29-31.5,14.9c-16.5,4.6-45,10.6-45,10.6,0,0,34,2,54,0,20-2,24-3.5,40-1.5s21-6.5,36-6,15,3.28,26.5,8.39,8.5,12.61,37,6.61,33.5-1.5,54.5,0,37,2,39.5,0,7-61,7-61Z"/>
          <path class="cls-7" d="m455,137.5s-15,3.94-39.5,4.72-50.5-1.78-70.5,0-46-3.72-63.5-4.72-43.5-1-46.5,0-21-.75-21-.75c0,0,16.5-5.25,32.5-5.75,16-.5,29,.5,39-3.5s24.17-.5,29.83,0c5.67.5,22.17,6,38.67,4,16.5-2,37-1.5,37-1.5l64,7.5Z"/>
          <path class="cls-7" d="m203,119s-17.5-8.21-41.5-7.1c-24,1.1-36,6.19-47.5-.1-11.5-6.29-16-8.29-30-9.29s-17,4.5-32.5,5C36,108,0,104.5,0,104.5v50.5s23-5,39.5-6c16.5-1,21.5-1.5,36-8,14.5-6.5,12.5-3.5,34-6,21.5-2.5,14,1.38,35-6.31s49.5-13.19,58.5-9.69Z"/>
          <path class="cls-7" d="m142.5,62.5s-26.5-7.5-35.5-12-16,0-26.5,2.5-19.5,5.58-30.5,2.54c-11-3.04-19.5.96-26.5,2.46s-29.5,1-29.5,1v13s43-2,54-3.5,12,4.5,29.5-1.5,15-10.42,31-6.71c16,3.71,34,2.21,34,2.21Z"/>
        </g>
        <g>
          <path class="cls-4" d="m264.12,123.79s3.98-1.79,5.91,0c0,0-3.71-.55-5.91,2.2-2.2-2.75-5.91-2.2-5.91-2.2,1.92-1.79,5.91,0,5.91,0Z"/>
          <path class="cls-4" d="m411.14,180.74s5.01-2.25,7.43,0c0,0-4.66-.69-7.43,2.76-2.76-3.46-7.43-2.76-7.43-2.76,2.42-2.25,7.43,0,7.43,0Z"/>
          <path class="cls-4" d="m200.14,97.58s6.65-2.98,9.86,0c0,0-6.19-.92-9.86,3.67-3.67-4.59-9.86-3.67-9.86-3.67,3.21-2.98,9.86,0,9.86,0Z"/>
          <path class="cls-4" d="m245.01,118.11s2.34-1.05,3.47,0c0,0-2.18-.32-3.47,1.29-1.29-1.61-3.47-1.29-3.47-1.29,1.13-1.05,3.47,0,3.47,0Z"/>
          <path class="cls-4" d="m87.26,174.29s2.19-.98,3.24,0c0,0-2.04-.3-3.24,1.21-1.21-1.51-3.24-1.21-3.24-1.21,1.06-.98,3.24,0,3.24,0Z"/>
          <path class="cls-4" d="m393.26,187s2.19-.98,3.24,0c0,0-2.04-.3-3.24,1.21-1.21-1.51-3.24-1.21-3.24-1.21,1.06-.98,3.24,0,3.24,0Z"/>
          <path class="cls-4" d="m447.86,199.92s2.34-1.05,3.47,0c0,0-2.18-.32-3.47,1.29-1.29-1.61-3.47-1.29-3.47-1.29,1.13-1.05,3.47,0,3.47,0Z"/>
        </g>
        <path class="cls-21" d="m419.33,517s7.37-21,11.85-27.33c4.48-6.33,13.48-11.35,13.48-11.35,0,0,11.67,1.31,15.33,0,3.67-1.31,3.67-9.38,6-10.85,2.33-1.47,4.33-17.47,9.67-18.47.67,5.33-4.33,12.06,2,15.7,6.33,3.64,9.33,8.05,9.33,10.84,0,2.79,3,7.46,3,7.46,0,0,1.58-4.62,4.98-5.59,3.4-.97,4.85.75,4.85.75l.97-2.87s4.69,2.28,6.47.18,3.4-3.8,3.4-3.8c0,0,3.72,2.68,4.85.09s1.94-8.26,3.4-9.23c1.46-.97,0-13.52,0-13.52,0,0,4.05,7.21,4.37,12.06.32,4.85,2.75,7.13,4.85,10.69,2.1,3.55.81,7.13,2.27,11.25,1.46,4.12,5.34,6.06,5.99,3.15.65-2.91-1.13-4.85,2.59-4.21,3.72.65,5.99,1.94,5.99,1.94,0,0-1.46-3.35,1.62-5.72s2.59,1.48,5.34-2.87c2.75-4.35,7.44.62,10.19-2.19,2.75-2.81,4.21-7.58,4.21-7.58,0,0,0-5.1,1.13-7.69s4.21-1.94,4.21-1.94c0,0,.32-5.5,3.56-9.39,3.24-3.88,1.78-5.66,2.75-7.93.97-2.27,3.72-3.85,4.21-2.57s.65,7.43,3.56,10.5c2.91,3.07,5.66-2.43,8.09,1.62s4.53,6.8,4.53,6.8c0,0,6.47-2.59,7.61-4.37,1.13-1.78.97-4.37,2.43-5.18,1.46-.81,2.43-13.92,4.21-14.56,1.78-.65,0,4.08.97,5.19s7.77-.66,7.61,6.62c-.16,7.28,4.53-4.05,4.53-4.05l2.75-5.99s1.94-14.24,3.24-12.14c1.29,2.1,1.78,10.84,1.78,10.84,0,0,3.4,1.94,4.05,6.63.65,4.69,1.13,8.09,1.62,8.74.49.65,2.43-3.07,3.56-3.56,1.13-.49,1.46-19.9,2.43-19.9s2.91,5.99,2.91,7.28.49,8.58,2.59,8.74c2.1.16,4.53-.65,5.66.49s4.05-12.46,6.15-8.74c2.1,3.72,2.59,5.34,2.59,5.34l3.24-5.34s2.1-19.74,4.37-18.61c2.27,1.13,1.94,7.61,1.94,8.25s-1.13,2.59,1.29,5.5c2.43,2.91,2.91,6.15,3.07,7.28.16,1.13,1.78,3.4,1.78,3.4l3.72-8.25s2.75-11.65,3.07-12.3c.32-.65,2.59-.49,1.94,5.5-.65,5.99-.16,8.74,1.29,9.71,1.46.97,6.63-4.85,6.63-4.85l3.4-6.15s2.43.16,2.1,5.99c-.32,5.83.81,9.22,1.13,10.19.32.97,4.53-11.97,4.53-12.46s4.05-5.66,4.37-6.47c.32-.81-2.43-16.18.81-14.24,3.24,1.94,3.24,8.41,2.91,9.87s-1.46,9.55,1.13,10.84,3.88,4.05,4.05,5.34,3.24-8.58,3.24-8.58c0,0,5.18,0,6.47-2.27s2.91-9.71,2.91-9.71c0,0,1.13-8.09,2.75-3.56,1.62,4.53-.16,8.25,1.13,10.36,1.29,2.1,4.53,1.94,4.53,1.94l4.05-5.5,9.55-9.71v114.51h-337.13Z"/>
        <path class="cls-16" d="m-10.25,446.25s12.75-8,14-12.25-.75-8.25,0-12.75.42-10.5.42-10.5l2.58-13s.25,4.5,2.25,9.75,4.25,11.25,3.25,14.5,1.25,8,1.25,8c0,0-1,10,1.25,8s3.75-7.25,3.75-7.25c0,0-1.75,7.75,1.5,6s5-7,5-7c0,0,2.75,5,4,4s6,0,7.5-3.25,4-12.25,7-14.75,4-9,5.75-9,2.25,11,3.5,13.25,3,7.75,3,7.75c0,0,2-6.75,3.25-10.5,1.25-3.75,2-5.25,3-9.75s2.75-6.5,2.75-6.5c0,0,1.5,4,1.75,7s0,11.5,0,11.5l.11,5.5s7.89-6,8.14-12.5c.25-6.5,3-7.5,3-7.5,0,0,2.75-4,4.25-5.75s.75-16.25,2.25-18.25,3.5-11.5,3.5-11.5c0,0,2,10.5,2.5,16.5s2,14,2,14l3.75,12.75,4,4.25s.25-3.25,2.25-12.25,2.75-11.75,2.75-12.5c0-.75,2.25-20,4-22.75,0,0,.75,1,2,4.25s3.25,7.75,3.25,9,1.25,10.25,1.25,10.25l2,8s3-4.5,3.5-8,2.25-10,2.5-10.75,2-22.25,2-22.25c0,0,5.25,8.75,6.75,18.75,1.5,10,2,6.25,2.75,13.75s1.25,18.25,1.25,18.25c0,0,4-10.5,4.75-11.75s0-13.25,0-13.25c0,0-.83-16.5.33-18.75,1.17-2.25,2.17,4,2.17,4,0,0,.75,10.5,4.5,15.25,3.75,4.75,3,14.25,3,14.25l2.75,10.5v6.5s1.5-11,3.5-15.5,2-15.75,2-15.75c0,0,2.25,2.5,2.75,7s0,12,0,12c0,0,4,5.75,4,7.75,0,0,.75-9,2-9.87s1,3.63,2.25,3.63,6-14.5,6-14.5l1.25-5s-.5.5,0,7.25c.5,6.75,0,12.75,0,12.75l4-2.75s.75-10.75,2-11.5,1.25,6.75,1.75,8,3.5,2.25,3.75,10.5c.25,8.25,1.75,12,1.75,12,0,0,4.5-4,5.25,2.5.75,6.5,7,3.5,7,3.5,0,0,2.75,6.25,5,3.75s7.5,5.75,9.25,2.75-.5-5.5,0-9.5,1.5-6.25,2-9,0-12.5,0-12.5c0,0,3.5-1.75,3.5,4s-.25,9.75,2,14.25l3.75,7.5s.25-4.25,0-9-1.28-10.25.11-10.25,1.39,1,2.14,5.75c.75,4.75,3.75,14.25,3.75,14.25,0,0,1-4.75,1.5-9s0-6.75,0-6.75c0,0,3.75.25,3.75,3.25s2.25,11.25,2.25,11.25l1.5,5.5s3-5.5,2.25-9.25.12-14.25.12-14.25c0,0,3.13,2,3.13,6s-.75,8.5,0,10,3,3.75,3,5.25v5.5s7.75,3.75,7.75,4.5c0,.75,1.75,4.75,1.75,4.75,0,0,6.75-.75,8-3.5s4.75-11.75,4.75-11.75c0,0,.25,2.75,1.25,5.5s.5,5.5,1.75,9.75,2,5,3,3.75,4-4.25,3-8.5c-1-4.25.25-1.75,1.25-8.75,1-7,1.5-11.75,1.5-11.75,0,0,3.25,3.75,4.25,10,1,6.25-2.25,8,0,11.75s4.25,5.59,4.25,7.8,1,4.95,1.5,3.7,1-7.75,3.25-10,1,4.5,1.75,5.25,4,3.75,4,3.75c0,0-1-4.75,0-8s-.25-10,0-11.25,2.39-5.75,2.39-5.75c0,0,2.66,5.75,3.51,8.5.85,2.75,3.64,0,3.5,4.75-.15,4.75,1.35,12,2.35,11.75s2.08-6,2.04-7.25c-.04-1.25-1.71-2.75,0-8.5,1.71-5.75,3.79-9.25,3.75-10.25-.04-1,.04,3,0,3.75-.04.75.47,10,.84,10.75.37.75,1.12.5,2.37,8.75,1.25,8.25,3,8.8,3.5,8.78.5-.03,1.24-13.53,1.24-13.53l3.01-6.75s1.61,13.5,4.18,13.5,5.62-5.25,5.72-6.25,6.1-7.25,6.6-12c.5-4.75,1.25-7,1.25-7,0,0,4.92,8.5,4.46,13.5-.46,5,2.06,13.75,2.06,13.75,0,0,6.24-4.75,8.23-11.5,1.99-6.75,5.21-15.25,5.21-15.25,0,0,4.81,14.75,3.54,17.25-1.26,2.5,8.22,7,7.23,10-.99,3,8.56,4.28,8.56,4.28l5.45-6.53,4.25-12s3.38,10.5,4.82,13.75c1.43,3.25,4.36,9.22,4.36,9.22l7.07-9.97,4.31-8.25s3.23,10.25,2.71,12.5,2.48,4.68,2.48,5.47,3.5-1.12,3.5-1.12v-10.1s3.25-9.25,3.25-9.25c0,0,2.25,8.5,1.88,9.25-.38.75,1.37,7.03,1.37,7.03l6.81,3.07,4.69,6.16s.75-5.76,1.75-10.51,0-10.5,0-10.5c0,0,4.5,4.62,3.25,13.44-1.25,8.81-.5,13.44,1.25,15.38s4.75-.81,5.75,5.19,5.75,9.75,6.75,10.5,12.75,7.25,12.75,8c0,.75,11,10,11,10H-7.33s-2.92-65.75-2.92-65.75Z"/>
      </g>
    </g>
  </g>
</svg>