<svg id="Layer_1" data-name="Layer 1" xmlns="http://www.w3.org/2000/svg" viewBox="0 0 954.5 228.94">
<title>justfalak</title>
<path d="M216.58,555.47c-1.38.34-1.72-1-2.07-3.44-1.37-7.22-8.93-21.66-23.37-21.66h-71.5c-35.41,1.72-56,22.69-52.94,53.28,0,.69-.69,1.72-1.37,1.72-.35,0-.69-.34-1-1-7.9-33.34,14.79-60.84,62.22-62.56h76.66c8.25,0,10.31,6.19,10.31,6.19l-.34-7.57c0-1.71.69-2.4,2.06-2.4,1.38.34,1.72,1.72,1.72,4.47,0,0,.34,26.12.69,28.87S217.61,555.47,216.58,555.47ZM198,630.4c0,2.75-.34,3.79-1,3.79-1.37.34-1.72-1-2.06-3.44-1.38-7.22-8.59-22-22.69-22.35-9.62-.68-18.9-.68-28.53-.68V672c0,10.31,7.22,12.37,15.47,13.06,1.72,0,2.41,1,2.41,2.06,0,1.72-1.72,1.72-4.47,1.72H121.7c-2.41,0-4.47-1-4.47-2.4,0-1,1-2.07,3.1-2.41l12,.34s-5.85-1.72-6.53-10v-133c0-2.4-.35-4.81-1.38-6.18h12.72s6.19,1.37,6.53,9.62v55c13.41,0,26.81,0,40.56.34,7.91.35,10,6.54,10,6.54v-7.57c0-1.72.69-2.4,1.72-2.4,1.72.34,2.06,2.06,1.72,4.47C197.67,601.19,197.67,627.31,198,630.4Z" transform="translate(-62.75 -518)"/>
<path d="M484,727c1.37,0,2.4,1.37,0,2.4a72.33,72.33,0,0,1-30.25,6.88c-28.19,0-60.85-17.88-82.16-74.94-17.53-47.44-45-105.53-45-105.53L293.92,635.9h58.44l2.41,6.19h-63.6c-3.44,8.6-11.34,24.75-12,35.06-.69,7.22,1.72,8.25,8.25,8.25,2.06,0,2.41,1,2.41,2.07,0,1.72-1.38,1.72-4.13,1.72H245.45c-3.43,0-5.15-.69-5.15-2.41,0-1,1.37-1.38,2.75-1.38,15.81,0,23.72-13.75,29.56-26.81l46.75-111.72c-.34,0,5.16-12,8.94-23a2.49,2.49,0,0,1,2.06-2.06c.69,0,1.37.69,2.06,1.72l57.75,133.72c19.94,45.37,43,73.22,73.91,73.22A57.19,57.19,0,0,0,483.33,727Z" transform="translate(-62.75 -518)"/>
<path d="M690.61,701.22c.68,0,1.37.68.68,2.4-8.93,21.66-30.25,43.32-66,43.32-17.53,0-38.15-5.16-62.9-17.54L494,694.34c-16.5-8.59-29.22-11.69-38.5-11.69-15.12,0-21.65,8.25-23.37,12.72-.35,1-.69,1.38-1.38,1.38s-1.37-.69-1-2.06c4.47-17.54,16.5-25.44,33-25.44,3.44,0,6.88.34,10.66.69V538.62c0-9.28-7.22-13.06-15.47-13.06-1.72,0-2.41-1-2.41-2.06,0-1.38,1-1.72,2.75-1.72h41.6c2.4,0,3.78,1.37,3.78,2.41s-.35,2.4-3.78,2.4H484.7s6.19,1.38,6.53,10V657.9c0,10.66,1.38,16.85,7.56,19.94,3.44,1.72,6.88,3.1,10.32,4.81l62.22,30.25c25.78,11.69,48.81,18.22,68.06,18.22,21.65,0,38.5-8.59,49.84-28.87C689.58,701.56,689.92,701.22,690.61,701.22Z" transform="translate(-62.75 -518)"/>
<path d="M811.61,727c1.37,0,2.4,1.37,0,2.4a72.33,72.33,0,0,1-30.25,6.88c-28.19,0-60.85-17.88-82.16-74.94-17.53-47.44-45-105.53-45-105.53L621.51,635.9H680l2.41,6.19h-63.6c-3.43,8.6-11.34,24.75-12,35.06-.69,7.22,1.72,8.25,8.25,8.25,2.06,0,2.41,1,2.41,2.07,0,1.72-1.38,1.72-4.13,1.72H573c-3.43,0-5.15-.69-5.15-2.41,0-1,1.37-1.38,2.75-1.38,15.81,0,23.72-13.75,29.56-26.81L647,546.87c-.34,0,5.16-12,8.94-23a2.49,2.49,0,0,1,2.06-2.06c.69,0,1.38.69,2.06,1.72l57.75,133.72c19.94,45.37,43,73.22,73.91,73.22A57.19,57.19,0,0,0,810.92,727Z" transform="translate(-62.75 -518)"/>
<path d="M836.7,686.78c0,2.06-2.06,2.06-4.47,2.06H796.82c-2.75,0-4.46-.69-4.46-2.06,0-1,.68-2.41,3.43-2.41h11.69s-5.84-1.37-6.53-10V538.28c0-9.63-7.56-12-15.47-12.72a2.17,2.17,0,0,1-2.41-2.41c0-1.37,1.72-1.37,4.47-1.37H824c2.41,0,4.13,1,4.13,2.41,0,1-1,2.06-4.13,2.06H812.29s6.19,1.72,6.53,10V672.34c0,10,7.22,11.69,15.47,12.72C836,685.06,836.7,686.09,836.7,686.78Zm179.44,11.34c1,0,1.72,1,.34,2.75-11.69,12-28.87,22-50.19,22-22.68,0-50.18-11.68-79.4-44l-32-35.4-35.06-37.13s58.43-68.75,60.84-71.84c4.47-6.88-1.72-8.94-7.22-8.94-2.06,0-2.06-1-2.06-2.06,0-1.72,1.72-1.72,4.12-1.72h44.35c4.47,0,4.81.69,4.81,2.06s-1,1.72-2.41,1.72c-13.4,0-26.12,16.16-34.72,24.41l-48.81,49.84,62.22,67C929.51,695,956,712.56,980,712.56c12,0,23.72-4.47,34.72-13.75A2.65,2.65,0,0,1,1016.14,698.12Z" transform="translate(-62.75 -518)"/>
</svg>