<svg width="30" height="30" viewBox="0 0 30 30" fill="none" xmlns="http://www.w3.org/2000/svg">
<path d="M15 0C10.9263 0 10.4154 0.0172822 8.8155 0.0902517C7.21893 0.163087 6.12854 0.416694 5.1744 0.787436C4.18802 1.17077 3.3515 1.6837 2.51762 2.51758C1.6837 3.35146 1.17077 4.18806 0.787481 5.17444C0.416649 6.12854 0.163132 7.21893 0.090207 8.8155C0.0172376 10.4154 0 10.9263 0 15C0 19.0737 0.0172376 19.5846 0.090207 21.1845C0.163132 22.7811 0.416649 23.8715 0.787481 24.8256C1.17082 25.8119 1.68375 26.6485 2.51762 27.4824C3.35155 28.3163 4.18802 28.8292 5.1744 29.2126C6.12854 29.5833 7.21893 29.8369 8.8155 29.9097C10.4154 29.9827 10.9263 30 15 30C19.0737 30 19.5846 29.9827 21.1845 29.9097C22.7811 29.8369 23.8715 29.5833 24.8256 29.2126C25.8119 28.8292 26.6485 28.3163 27.4824 27.4824C28.3163 26.6485 28.8292 25.8119 29.2126 24.8256C29.5833 23.8715 29.8369 22.7811 29.9097 21.1845C29.9827 19.5846 30 19.0737 30 15C30 10.9263 29.9827 10.4154 29.9097 8.8155C29.8369 7.21893 29.5833 6.12854 29.2126 5.17444C28.8292 4.18806 28.3163 3.35146 27.4824 2.51758C26.6485 1.6837 25.8119 1.17077 24.8256 0.787436C23.8715 0.416694 22.7811 0.163087 21.1845 0.0902517C19.5846 0.0172822 19.0737 0 15 0ZM15 2.70268C19.0051 2.70268 19.4796 2.718 21.0613 2.79017C22.5238 2.85684 23.318 3.1012 23.8465 3.30662C24.5468 3.57876 25.0464 3.90378 25.5713 4.42867C26.0962 4.95357 26.4212 5.45328 26.6934 6.15341C26.8988 6.68197 27.1432 7.47624 27.2098 8.93871C27.282 10.5204 27.2973 10.9949 27.2973 15C27.2973 19.0051 27.282 19.4796 27.2098 21.0613C27.1432 22.5238 26.8988 23.318 26.6934 23.8465C26.4212 24.5468 26.0962 25.0464 25.5713 25.5713C25.0464 26.0962 24.5467 26.4212 23.8466 26.6934C23.318 26.8988 22.5238 27.1432 21.0613 27.2098C19.4798 27.282 19.0055 27.2973 15 27.2973C10.9945 27.2973 10.5202 27.282 8.93871 27.2098C7.4762 27.1432 6.68197 26.8988 6.15346 26.6934C5.45324 26.4212 4.95357 26.0962 4.42872 25.5713C3.90382 25.0464 3.57876 24.5467 3.30662 23.8466C3.1012 23.318 2.85688 22.5238 2.79017 21.0613C2.718 19.4796 2.70268 19.0051 2.70268 15C2.70268 10.9949 2.718 10.5204 2.79017 8.93871C2.85688 7.4762 3.1012 6.68197 3.30662 6.15346C3.57876 5.45324 3.90382 4.95357 4.42867 4.42872C4.95357 3.90378 5.45328 3.57876 6.15341 3.30662C6.68197 3.1012 7.47624 2.85684 8.93871 2.79017C10.5204 2.718 10.9949 2.70268 15 2.70268Z" fill="url(#paint0_linear_548_11)" fill-opacity="0.75"/>
<path d="M15.0006 20C12.2391 20 10.0005 17.7614 10.0005 15C10.0005 12.2385 12.2391 9.99992 15.0006 9.99992C17.762 9.99992 20.0006 12.2385 20.0006 15C20.0006 17.7614 17.762 20 15.0006 20ZM15.0006 7.29724C10.7464 7.29724 7.29785 10.7458 7.29785 15C7.29785 19.254 10.7464 22.7026 15.0006 22.7026C19.2547 22.7026 22.7032 19.254 22.7032 15C22.7032 10.7458 19.2547 7.29724 15.0006 7.29724ZM24.8076 6.9929C24.8076 7.98706 24.0017 8.79289 23.0076 8.79289C22.0135 8.79289 21.2076 7.98706 21.2076 6.9929C21.2076 5.99879 22.0135 5.19287 23.0076 5.19287C24.0017 5.19287 24.8076 5.99879 24.8076 6.9929Z" fill="url(#paint1_linear_548_11)" fill-opacity="0.75"/>
<defs>
<linearGradient id="paint0_linear_548_11" x1="15" y1="0" x2="15" y2="30" gradientUnits="userSpaceOnUse">
<stop stop-color="#3BACC1"/>
<stop offset="1" stop-color="#143E86" stop-opacity="0.75"/>
</linearGradient>
<linearGradient id="paint1_linear_548_11" x1="16.0527" y1="5.19287" x2="16.0527" y2="22.7026" gradientUnits="userSpaceOnUse">
<stop stop-color="#3BACC1"/>
<stop offset="1" stop-color="#143E86" stop-opacity="0.75"/>
</linearGradient>
</defs>
</svg>
