<svg width="30" height="30" viewBox="0 0 30 30" fill="none" xmlns="http://www.w3.org/2000/svg">
<path d="M3.51966 0C1.48045 0 0 1.40669 0 3.34341C0 5.27949 1.45108 6.68487 3.44916 6.68487C4.48574 6.68487 5.37871 6.3487 6.03212 5.71292C6.65876 5.10259 7.00407 4.26119 7.00342 3.3284C6.95772 1.36883 5.52492 0 3.51966 0ZM5.12217 4.77752C4.71747 5.17113 4.13847 5.37936 3.44916 5.37936C2.18738 5.37936 1.30551 4.54253 1.30551 3.34341C1.30551 2.12472 2.19522 1.30551 3.51966 1.30551C4.81407 1.30551 5.66918 2.11166 5.69856 3.34407C5.6979 3.90674 5.49359 4.41524 5.12217 4.77752Z" fill="url(#paint0_linear_548_6)" fill-opacity="0.75"/>
<path d="M0.625977 29.3577H6.49294V7.78735H0.625977V29.3577ZM1.93149 9.09286H5.18743V28.0515H1.93149V9.09286Z" fill="url(#paint1_linear_548_6)" fill-opacity="0.75"/>
<path d="M21.9636 7.78735C19.2429 7.78735 17.5771 8.72667 16.6123 9.60985L16.4289 7.78735H9.79102V29.357H16.2918V18.0206C16.2918 17.5323 16.4896 16.5186 16.6136 16.251C17.3989 14.5597 18.4583 14.5597 20.0628 14.5597C21.9107 14.5597 23.4721 16.2928 23.4721 18.3437V29.3583H29.9997V17.1714C29.9997 10.7234 25.8338 7.78735 21.9636 7.78735ZM28.6942 28.0522H24.7776V18.3431C24.7776 15.5839 22.6183 13.2535 20.0628 13.2535C18.4231 13.2535 16.5653 13.2535 15.4289 15.7014C15.1945 16.2072 14.9856 17.4194 14.9856 18.0206V28.0522H11.0965V9.09286H15.2481L15.5144 11.7326H16.5842L16.7755 11.4239C17.2109 10.7228 18.5876 9.09221 21.9636 9.09221C25.2052 9.09221 28.6942 11.6197 28.6942 17.1694V28.0522Z" fill="url(#paint2_linear_548_6)" fill-opacity="0.75"/>
<defs>
<linearGradient id="paint0_linear_548_6" x1="3.50171" y1="0" x2="3.50171" y2="6.68487" gradientUnits="userSpaceOnUse">
<stop stop-color="#3BACC1"/>
<stop offset="1" stop-color="#143E86" stop-opacity="0.75"/>
</linearGradient>
<linearGradient id="paint1_linear_548_6" x1="3.55946" y1="7.78735" x2="3.55946" y2="29.3577" gradientUnits="userSpaceOnUse">
<stop stop-color="#3BACC1"/>
<stop offset="1" stop-color="#143E86" stop-opacity="0.75"/>
</linearGradient>
<linearGradient id="paint2_linear_548_6" x1="19.8953" y1="7.78735" x2="19.8953" y2="29.3583" gradientUnits="userSpaceOnUse">
<stop stop-color="#3BACC1"/>
<stop offset="1" stop-color="#143E86" stop-opacity="0.75"/>
</linearGradient>
</defs>
</svg>
