<svg width="76" height="28" viewBox="0 0 76 28" fill="none" xmlns="http://www.w3.org/2000/svg">
<path d="M27.344 20.224H31.024V22H25.104V10.832H27.344V20.224ZM36.3038 22.112C35.5251 22.112 34.8211 21.9787 34.1918 21.712C33.5731 21.4453 33.0824 21.0613 32.7198 20.56C32.3571 20.0587 32.1704 19.4667 32.1598 18.784H34.5598C34.5918 19.2427 34.7518 19.6053 35.0398 19.872C35.3384 20.1387 35.7438 20.272 36.2558 20.272C36.7784 20.272 37.1891 20.1493 37.4878 19.904C37.7864 19.648 37.9358 19.3173 37.9358 18.912C37.9358 18.5813 37.8344 18.3093 37.6318 18.096C37.4291 17.8827 37.1731 17.7173 36.8638 17.6C36.5651 17.472 36.1491 17.3333 35.6158 17.184C34.8904 16.9707 34.2984 16.7627 33.8398 16.56C33.3918 16.3467 33.0024 16.032 32.6718 15.616C32.3518 15.1893 32.1918 14.624 32.1918 13.92C32.1918 13.2587 32.3571 12.6827 32.6878 12.192C33.0184 11.7013 33.4824 11.328 34.0798 11.072C34.6771 10.8053 35.3598 10.672 36.1278 10.672C37.2798 10.672 38.2131 10.9547 38.9278 11.52C39.6531 12.0747 40.0531 12.8533 40.1278 13.856H37.6638C37.6424 13.472 37.4771 13.1573 37.1678 12.912C36.8691 12.656 36.4691 12.528 35.9678 12.528C35.5304 12.528 35.1784 12.64 34.9118 12.864C34.6558 13.088 34.5278 13.4133 34.5278 13.84C34.5278 14.1387 34.6238 14.3893 34.8158 14.592C35.0184 14.784 35.2638 14.944 35.5518 15.072C35.8504 15.1893 36.2664 15.328 36.7998 15.488C37.5251 15.7013 38.1171 15.9147 38.5758 16.128C39.0344 16.3413 39.4291 16.6613 39.7598 17.088C40.0904 17.5147 40.2558 18.0747 40.2558 18.768C40.2558 19.3653 40.1011 19.92 39.7917 20.432C39.4824 20.944 39.0291 21.3547 38.4318 21.664C37.8344 21.9627 37.1251 22.112 36.3038 22.112ZM49.7978 10.832V12.64H46.8218V22H44.5818V12.64H41.6058V10.832H49.7978ZM53.6721 10.832V22H51.4321V10.832H53.6721ZM55.3413 16.4C55.3413 15.3013 55.5866 14.32 56.0773 13.456C56.5786 12.5813 57.2559 11.904 58.1093 11.424C58.9733 10.9333 59.9386 10.688 61.0053 10.688C62.2533 10.688 63.3466 11.008 64.2853 11.648C65.2239 12.288 65.8799 13.1733 66.2533 14.304H63.6773C63.4213 13.7707 63.0586 13.3707 62.5893 13.104C62.1306 12.8373 61.5973 12.704 60.9893 12.704C60.3386 12.704 59.7573 12.8587 59.2453 13.168C58.7439 13.4667 58.3493 13.8933 58.0613 14.448C57.7839 15.0027 57.6453 15.6533 57.6453 16.4C57.6453 17.136 57.7839 17.7867 58.0613 18.352C58.3493 18.9067 58.7439 19.3387 59.2453 19.648C59.7573 19.9467 60.3386 20.096 60.9893 20.096C61.5973 20.096 62.1306 19.9627 62.5893 19.696C63.0586 19.4187 63.4213 19.0133 63.6773 18.48H66.2533C65.8799 19.6213 65.2239 20.512 64.2853 21.152C63.3573 21.7813 62.2639 22.096 61.0053 22.096C59.9386 22.096 58.9733 21.856 58.1093 21.376C57.2559 20.8853 56.5786 20.208 56.0773 19.344C55.5866 18.48 55.3413 17.4987 55.3413 16.4ZM70.4065 12.64V15.44H74.1665V17.216H70.4065V20.176H74.6465V22H68.1665V10.816H74.6465V12.64H70.4065Z" fill="white"/>
<path d="M4.96 22.112C4.18133 22.112 3.47733 21.9787 2.848 21.712C2.22933 21.4453 1.73867 21.0613 1.376 20.56C1.01333 20.0587 0.826667 19.4667 0.816 18.784H3.216C3.248 19.2427 3.408 19.6053 3.696 19.872C3.99467 20.1387 4.4 20.272 4.912 20.272C5.43467 20.272 5.84533 20.1493 6.144 19.904C6.44267 19.648 6.592 19.3173 6.592 18.912C6.592 18.5813 6.49067 18.3093 6.288 18.096C6.08533 17.8827 5.82933 17.7173 5.52 17.6C5.22133 17.472 4.80533 17.3333 4.272 17.184C3.54667 16.9707 2.95467 16.7627 2.496 16.56C2.048 16.3467 1.65867 16.032 1.328 15.616C1.008 15.1893 0.848 14.624 0.848 13.92C0.848 13.2587 1.01333 12.6827 1.344 12.192C1.67467 11.7013 2.13867 11.328 2.736 11.072C3.33333 10.8053 4.016 10.672 4.784 10.672C5.936 10.672 6.86933 10.9547 7.584 11.52C8.30933 12.0747 8.70933 12.8533 8.784 13.856H6.32C6.29867 13.472 6.13333 13.1573 5.824 12.912C5.52533 12.656 5.12533 12.528 4.624 12.528C4.18667 12.528 3.83467 12.64 3.568 12.864C3.312 13.088 3.184 13.4133 3.184 13.84C3.184 14.1387 3.28 14.3893 3.472 14.592C3.67467 14.784 3.92 14.944 4.208 15.072C4.50667 15.1893 4.92267 15.328 5.456 15.488C6.18133 15.7013 6.77333 15.9147 7.232 16.128C7.69067 16.3413 8.08533 16.6613 8.416 17.088C8.74667 17.5147 8.912 18.0747 8.912 18.768C8.912 19.3653 8.75733 19.92 8.448 20.432C8.13867 20.944 7.68533 21.3547 7.088 21.664C6.49067 21.9627 5.78133 22.112 4.96 22.112Z" fill="white"/>
<path d="M21.5138 11.694L17.9596 10.0366C15.5996 8.93614 12.7944 9.95717 11.6939 12.3171L10.0366 15.8713C8.93611 18.2313 9.95713 21.0365 12.3171 22.137L15.8713 23.7943C18.2312 24.8948 21.0365 23.8738 22.137 21.5138L23.7943 17.9597C24.8948 15.5997 23.8738 12.7944 21.5138 11.694Z" stroke="#3BACC1" stroke-opacity="0.75"/>
<path d="M25.1236 15.1559L20.5419 9.39595C19.2241 7.73916 16.8126 7.46441 15.1559 8.78228L9.39592 13.3639C7.73913 14.6818 7.46438 17.0932 8.78225 18.75L13.3639 24.51C14.6818 26.1668 17.0932 26.4415 18.75 25.1236L24.5099 20.542C26.1667 19.2241 26.4415 16.8127 25.1236 15.1559Z" stroke="#AF6C99" stroke-opacity="0.75"/>
<path d="M25.8109 16.691L21.9311 9.69167C20.899 7.8297 18.5529 7.15697 16.691 8.18907L9.69165 12.0689C7.82968 13.101 7.15695 15.4471 8.18905 17.309L12.0688 24.3083C13.1009 26.1703 15.447 26.843 17.309 25.8109L24.3083 21.9311C26.1703 20.899 26.843 18.5529 25.8109 16.691Z" stroke="#143E86" stroke-opacity="0.75"/>
<path d="M23.6312 11.9262L17.1401 8.47476C15.2604 7.47531 12.9264 8.18889 11.927 10.0686L8.47556 16.5597C7.47611 18.4394 8.18969 20.7734 10.0694 21.7729L16.5605 25.2243C18.4402 26.2237 20.7742 25.5101 21.7737 23.6304L25.2251 17.1393C26.2245 15.2596 25.5109 12.9256 23.6312 11.9262Z" stroke="#6738BE" stroke-opacity="0.75"/>
<path d="M63.036 2.818V3.262H61.896V7H61.35V3.262H60.204V2.818H63.036ZM64.2541 3.262V4.66H65.7781V5.11H64.2541V6.55H65.9581V7H63.7081V2.812H65.9581V3.262H64.2541ZM66.5803 4.906C66.5803 4.498 66.6723 4.132 66.8563 3.808C67.0403 3.48 67.2903 3.224 67.6063 3.04C67.9263 2.856 68.2803 2.764 68.6683 2.764C69.1243 2.764 69.5223 2.874 69.8623 3.094C70.2023 3.314 70.4503 3.626 70.6063 4.03H69.9523C69.8363 3.778 69.6683 3.584 69.4483 3.448C69.2323 3.312 68.9723 3.244 68.6683 3.244C68.3763 3.244 68.1143 3.312 67.8823 3.448C67.6503 3.584 67.4683 3.778 67.3363 4.03C67.2043 4.278 67.1383 4.57 67.1383 4.906C67.1383 5.238 67.2043 5.53 67.3363 5.782C67.4683 6.03 67.6503 6.222 67.8823 6.358C68.1143 6.494 68.3763 6.562 68.6683 6.562C68.9723 6.562 69.2323 6.496 69.4483 6.364C69.6683 6.228 69.8363 6.034 69.9523 5.782H70.6063C70.4503 6.182 70.2023 6.492 69.8623 6.712C69.5223 6.928 69.1243 7.036 68.6683 7.036C68.2803 7.036 67.9263 6.946 67.6063 6.766C67.2903 6.582 67.0403 6.328 66.8563 6.004C66.6723 5.68 66.5803 5.314 66.5803 4.906ZM74.641 2.818V7H74.095V5.104H71.965V7H71.419V2.818H71.965V4.654H74.095V2.818H74.641Z" fill="white"/>
</svg>
