<svg width="1378" height="1024" viewBox="0 0 1378 1024" fill="none" xmlns="http://www.w3.org/2000/svg">
<ellipse cx="327.519" cy="1.03684" rx="0.912548" ry="1.03684" fill="#D9D9D9"/>
<ellipse cx="659.772" cy="774.519" rx="0.912548" ry="1.03684" fill="#D9D9D9"/>
<ellipse cx="315.719" cy="75.5488" rx="0.912548" ry="1.03684" fill="#D9D9D9"/>
<ellipse cx="292.015" cy="357.709" rx="0.912548" ry="1.03684" fill="#D9D9D9"/>
<ellipse cx="1375.02" cy="602.391" rx="0.912548" ry="1.03684" fill="white"/>
<ellipse cx="156.958" cy="730.376" rx="0.912548" ry="1.03684" fill="white"/>
<ellipse cx="518.461" cy="20.3222" rx="0.912548" ry="1.03684" fill="white"/>
<ellipse cx="322.156" cy="669.89" rx="0.912548" ry="1.03684" fill="white"/>
<ellipse cx="584.969" cy="51.0036" rx="0.912548" ry="1.03684" fill="white"/>
<ellipse cx="475.553" cy="124.639" rx="0.912548" ry="1.03684" fill="white"/>
<ellipse cx="630.559" cy="679.533" rx="0.912548" ry="1.03684" fill="white"/>
<ellipse cx="189.14" cy="632.196" rx="0.912548" ry="1.03684" fill="white"/>
<ellipse cx="726.031" cy="191.261" rx="0.912548" ry="1.03684" fill="white"/>
<ellipse cx="778.593" cy="47.4968" rx="0.912548" ry="1.03684" fill="white"/>
<ellipse cx="1251.12" cy="55.3867" rx="0.912548" ry="1.03684" fill="white"/>
<ellipse cx="1104.18" cy="689.498" rx="0.912548" ry="1.03684" fill="white"/>
<ellipse cx="241.166" cy="254.377" rx="0.912548" ry="1.03684" fill="white"/>
<ellipse cx="922.873" cy="84.3149" rx="0.912548" ry="1.03684" fill="white"/>
<ellipse cx="196.198" cy="357.709" rx="0.912548" ry="1.03684" fill="white"/>
<ellipse cx="194.503" cy="117.626" rx="0.912548" ry="1.03684" fill="white"/>
<ellipse cx="1376.09" cy="448.984" rx="0.912548" ry="1.03684" fill="white"/>
<ellipse cx="204.694" cy="45.7439" rx="0.912548" ry="1.03684" fill="white"/>
<ellipse cx="168.222" cy="525.25" rx="0.912548" ry="1.03684" fill="white"/>
<ellipse cx="1284.38" cy="646.221" rx="0.912548" ry="1.03684" fill="white"/>
<ellipse cx="1346.06" cy="368.336" rx="0.912548" ry="1.03684" fill="white"/>
<ellipse cx="1248.44" cy="405.154" rx="0.912548" ry="1.03684" fill="white"/>
<ellipse cx="1375.02" cy="224.572" rx="0.912548" ry="1.03684" fill="white"/>
<ellipse cx="259.938" cy="752.291" rx="0.912548" ry="1.03684" fill="white"/>
<ellipse cx="990.453" cy="679.533" rx="0.912548" ry="1.03684" fill="white"/>
<ellipse cx="605.887" cy="191.261" rx="0.912548" ry="1.03684" fill="white"/>
<ellipse cx="1206.6" cy="27.3354" rx="0.912548" ry="1.03684" fill="white"/>
<ellipse cx="1038.73" cy="131.652" rx="0.912548" ry="1.03684" fill="white"/>
<ellipse cx="1004.4" cy="24.7055" rx="0.912548" ry="1.03684" fill="white"/>
<ellipse cx="1103.09" cy="79.9319" rx="0.912548" ry="1.03684" fill="white"/>
<ellipse cx="472.871" cy="711.968" rx="0.912548" ry="1.03684" fill="white"/>
<ellipse cx="692.24" cy="12.4328" rx="0.912548" ry="1.03684" fill="white"/>
<ellipse cx="1051.25" cy="732.008" rx="0.912548" ry="1.03684" fill="white"/>
<ellipse cx="1077.72" cy="694.682" rx="0.912548" ry="1.03684" fill="white"/>
<ellipse cx="661.131" cy="117.626" rx="0.912548" ry="1.03684" fill="white"/>
<ellipse cx="1196.41" cy="780.343" rx="0.912548" ry="1.03684" fill="white"/>
<ellipse cx="967.3" cy="662.54" rx="0.912548" ry="1.03684" fill="white"/>
<ellipse cx="1253.8" cy="707.584" rx="0.912548" ry="1.03684" fill="white"/>
<ellipse cx="708.137" cy="782.813" rx="0.912548" ry="1.03684" fill="white"/>
<ellipse cx="545.815" cy="761.058" rx="0.912548" ry="1.03684" fill="white"/>
<ellipse cx="1338.01" cy="79.9319" rx="0.912548" ry="1.03684" fill="white"/>
<ellipse cx="1340.69" cy="27.3354" rx="0.912548" ry="1.03684" fill="white"/>
<ellipse cx="965.245" cy="756.675" rx="0.912548" ry="1.03684" fill="white"/>
<ellipse cx="925.554" cy="1.03684" rx="0.912548" ry="1.03684" fill="white"/>
<ellipse cx="882.11" cy="165.84" rx="0.912548" ry="1.03684" fill="white"/>
<ellipse cx="536.578" cy="680.166" rx="0.912548" ry="1.03684" fill="white"/>
<ellipse cx="947.545" cy="170.223" rx="0.912548" ry="1.03684" fill="white"/>
<ellipse cx="908.391" cy="675.15" rx="0.912548" ry="1.03684" fill="white"/>
<ellipse cx="870.846" cy="306.974" rx="0.912548" ry="1.03684" fill="white"/>
<ellipse cx="191.821" cy="447.231" rx="0.912548" ry="1.03684" fill="white"/>
<ellipse cx="402.609" cy="55.3867" rx="0.912548" ry="1.03684" fill="white"/>
<ellipse cx="274.677" cy="543.304" rx="0.912548" ry="1.03684" fill="white"/>
<ellipse cx="387.054" cy="627.813" rx="0.912548" ry="1.03684" fill="white"/>
<ellipse cx="664.706" cy="342.037" rx="0.912548" ry="1.03684" fill="#D9D9D9"/>
<ellipse cx="694.846" cy="654.218" rx="0.912548" ry="1.03684" fill="white"/>
<ellipse cx="561.83" cy="616.523" rx="0.912548" ry="1.03684" fill="white"/>
<ellipse cx="568.888" cy="342.037" rx="0.912548" ry="1.03684" fill="white"/>
<ellipse cx="540.913" cy="509.577" rx="0.912548" ry="1.03684" fill="white"/>
<ellipse cx="564.512" cy="431.558" rx="0.912548" ry="1.03684" fill="white"/>
<ellipse cx="647.367" cy="527.631" rx="0.912548" ry="1.03684" fill="white"/>
<ellipse cx="759.745" cy="612.14" rx="0.912548" ry="1.03684" fill="white"/>
<ellipse cx="690.257" cy="404.247" rx="0.912548" ry="1.03684" fill="white"/>
<ellipse cx="822.576" cy="358.626" rx="0.912548" ry="1.03684" fill="white"/>
<ellipse cx="1038.71" cy="332.037" rx="0.912548" ry="1.03684" fill="#D9D9D9"/>
<ellipse cx="1068.85" cy="644.218" rx="0.912548" ry="1.03684" fill="white"/>
<ellipse cx="935.83" cy="606.523" rx="0.912548" ry="1.03684" fill="white"/>
<ellipse cx="942.888" cy="332.037" rx="0.912548" ry="1.03684" fill="white"/>
<ellipse cx="914.913" cy="499.577" rx="0.912548" ry="1.03684" fill="white"/>
<ellipse cx="938.512" cy="421.558" rx="0.912548" ry="1.03684" fill="white"/>
<ellipse cx="1021.37" cy="517.631" rx="0.912548" ry="1.03684" fill="white"/>
<ellipse cx="1133.74" cy="602.14" rx="0.912548" ry="1.03684" fill="white"/>
<ellipse cx="1064.26" cy="394.247" rx="0.912548" ry="1.03684" fill="white"/>
<ellipse cx="1196.58" cy="348.626" rx="0.912548" ry="1.03684" fill="white"/>
<ellipse cx="171.473" cy="243.657" rx="0.912548" ry="1.03684" fill="#D9D9D9"/>
<ellipse cx="159.674" cy="318.169" rx="0.912548" ry="1.03684" fill="#D9D9D9"/>
<ellipse cx="19.1487" cy="610.957" rx="0.912548" ry="1.03684" fill="#D9D9D9"/>
<ellipse cx="1218.97" cy="845.012" rx="0.912548" ry="1.03684" fill="white"/>
<ellipse cx="0.912548" cy="972.996" rx="0.912548" ry="1.03684" fill="white"/>
<ellipse cx="362.416" cy="262.942" rx="0.912548" ry="1.03684" fill="white"/>
<ellipse cx="166.11" cy="912.51" rx="0.912548" ry="1.03684" fill="white"/>
<ellipse cx="428.923" cy="293.624" rx="0.912548" ry="1.03684" fill="white"/>
<ellipse cx="317.567" cy="419.92" rx="0.912548" ry="1.03684" fill="white"/>
<ellipse cx="1048.52" cy="880.276" rx="0.912548" ry="1.03684" fill="white"/>
<ellipse cx="33.0938" cy="874.816" rx="0.912548" ry="1.03684" fill="white"/>
<ellipse cx="431.605" cy="828.356" rx="0.912548" ry="1.03684" fill="white"/>
<ellipse cx="622.547" cy="290.117" rx="0.912548" ry="1.03684" fill="white"/>
<ellipse cx="1095.08" cy="298.007" rx="0.912548" ry="1.03684" fill="white"/>
<ellipse cx="949.724" cy="994.912" rx="0.912548" ry="1.03684" fill="white"/>
<ellipse cx="85.1205" cy="496.998" rx="0.912548" ry="1.03684" fill="white"/>
<ellipse cx="766.827" cy="326.935" rx="0.912548" ry="1.03684" fill="white"/>
<ellipse cx="21.8304" cy="545.211" rx="0.912548" ry="1.03684" fill="white"/>
<ellipse cx="38.4577" cy="360.246" rx="0.912548" ry="1.03684" fill="white"/>
<ellipse cx="1220.05" cy="691.605" rx="0.912548" ry="1.03684" fill="white"/>
<ellipse cx="48.6482" cy="288.364" rx="0.912548" ry="1.03684" fill="white"/>
<ellipse cx="12.1764" cy="767.87" rx="0.912548" ry="1.03684" fill="white"/>
<ellipse cx="1324.11" cy="906.197" rx="0.912548" ry="1.03684" fill="white"/>
<ellipse cx="1190.01" cy="610.957" rx="0.912548" ry="1.03684" fill="white"/>
<ellipse cx="1092.39" cy="647.774" rx="0.912548" ry="1.03684" fill="white"/>
<ellipse cx="103.893" cy="994.912" rx="0.912548" ry="1.03684" fill="white"/>
<ellipse cx="834.408" cy="922.153" rx="0.912548" ry="1.03684" fill="white"/>
<ellipse cx="1050.56" cy="269.956" rx="0.912548" ry="1.03684" fill="white"/>
<ellipse cx="882.679" cy="374.272" rx="0.912548" ry="1.03684" fill="white"/>
<ellipse cx="848.353" cy="267.326" rx="0.912548" ry="1.03684" fill="white"/>
<ellipse cx="832.243" cy="679.13" rx="0.912548" ry="1.03684" fill="white"/>
<ellipse cx="536.194" cy="255.053" rx="0.912548" ry="1.03684" fill="white"/>
<ellipse cx="913.251" cy="893.225" rx="0.912548" ry="1.03684" fill="white"/>
<ellipse cx="538.876" cy="846.765" rx="0.912548" ry="1.03684" fill="white"/>
<ellipse cx="423.024" cy="917.77" rx="0.912548" ry="1.03684" fill="white"/>
<ellipse cx="1040.37" cy="1022.96" rx="0.912548" ry="1.03684" fill="white"/>
<ellipse cx="666.529" cy="1018.58" rx="0.912548" ry="1.03684" fill="white"/>
<ellipse cx="1097.76" cy="950.205" rx="0.912548" ry="1.03684" fill="white"/>
<ellipse cx="389.77" cy="1003.68" rx="0.912548" ry="1.03684" fill="white"/>
<ellipse cx="477.196" cy="990.529" rx="0.912548" ry="1.03684" fill="white"/>
<ellipse cx="661.165" cy="893.225" rx="0.912548" ry="1.03684" fill="white"/>
<ellipse cx="449.886" cy="374.299" rx="0.912548" ry="1.03684" fill="white"/>
<ellipse cx="1184.65" cy="269.956" rx="0.912548" ry="1.03684" fill="white"/>
<ellipse cx="809.199" cy="999.295" rx="0.912548" ry="1.03684" fill="white"/>
<ellipse cx="769.509" cy="243.657" rx="0.912548" ry="1.03684" fill="white"/>
<ellipse cx="443.941" cy="994.912" rx="0.912548" ry="1.03684" fill="white"/>
<ellipse cx="752.346" cy="917.77" rx="0.912548" ry="1.03684" fill="white"/>
<ellipse cx="35.776" cy="689.851" rx="0.912548" ry="1.03684" fill="white"/>
<ellipse cx="246.563" cy="298.007" rx="0.912548" ry="1.03684" fill="white"/>
<ellipse cx="101.211" cy="908.127" rx="0.912548" ry="1.03684" fill="white"/>
<ellipse cx="231.009" cy="870.433" rx="0.912548" ry="1.03684" fill="white"/>
</svg>
